<?xml version="1.0" encoding="UTF-8" standalone="no"?>
<!-- Created with Inkscape (http://www.inkscape.org/) -->

<svg
   xmlns:dc="http://purl.org/dc/elements/1.1/"
   xmlns:cc="http://creativecommons.org/ns#"
   xmlns:rdf="http://www.w3.org/1999/02/22-rdf-syntax-ns#"
   xmlns:svg="http://www.w3.org/2000/svg"
   xmlns="http://www.w3.org/2000/svg"
   xmlns:sodipodi="http://sodipodi.sourceforge.net/DTD/sodipodi-0.dtd"
   xmlns:inkscape="http://www.inkscape.org/namespaces/inkscape"
   width="240.01167mm"
   height="362.5062mm"
   viewBox="0 0 240.01168 362.50619"
   version="1.1"
   id="svg8"
   inkscape:version="0.92.3 (2405546, 2018-03-11)"
   sodipodi:docname="Écusson_protection_civile,_Tunisie.svg">
  <defs
     id="defs2" />
  <sodipodi:namedview
     id="base"
     pagecolor="#ffffff"
     bordercolor="#666666"
     borderopacity="1.0"
     inkscape:pageopacity="0.0"
     inkscape:pageshadow="2"
     inkscape:zoom="0.25839844"
     inkscape:cx="446.89922"
     inkscape:cy="674.08153"
     inkscape:document-units="mm"
     inkscape:current-layer="layer1"
     showgrid="false"
     fit-margin-top="0"
     fit-margin-left="0"
     fit-margin-right="0"
     fit-margin-bottom="0"
     inkscape:window-width="1280"
     inkscape:window-height="736"
     inkscape:window-x="0"
     inkscape:window-y="27"
     inkscape:window-maximized="1"
     showguides="true"
     inkscape:guide-bbox="true"
     inkscape:object-nodes="true"
     inkscape:snap-object-midpoints="true"
     inkscape:object-paths="true">
    <sodipodi:guide
       position="120.13239,393.53377"
       orientation="1,0"
       id="guide6619"
       inkscape:locked="false" />
  </sodipodi:namedview>
  <metadata
     id="metadata5">
    <rdf:RDF>
      <cc:Work
         rdf:about="">
        <dc:format>image/svg+xml</dc:format>
        <dc:type
           rdf:resource="http://purl.org/dc/dcmitype/StillImage" />
        <dc:title></dc:title>
      </cc:Work>
    </rdf:RDF>
  </metadata>
  <g
     inkscape:groupmode="layer"
     id="layer2"
     inkscape:label="Fond"
     style="display:inline;opacity:0.48900003"
     transform="translate(-1499.1517,-369.00521)" />
  <g
     inkscape:groupmode="layer"
     id="layer1"
     inkscape:label="contour"
     transform="translate(-18.098907,-4.2295328)">
    <path
       style="fill:#ffffff;stroke:#000000;stroke-width:22.67716599;stroke-linecap:butt;stroke-linejoin:miter;stroke-opacity:1"
       d="m 522.44922,27.324219 a 166.70742,166.70742 0 0 0 -166.70703,166.707031 166.70742,166.70742 0 0 0 0.33984,9.64453 L 80.693359,278.81836 v 727.90824 c 0,0 -7.895893,64.8352 24.628911,114.9336 22.99521,35.4198 67.04296,61.5703 67.04296,61.5703 l 349.60547,189.9531 349.60352,-189.9531 c 0,0 44.04971,-26.1505 67.04492,-61.5703 32.5248,-50.0984 24.62891,-114.9336 24.62891,-114.9336 V 278.81836 L 688.66406,203.89648 a 166.70742,166.70742 0 0 0 0.49219,-9.86523 A 166.70742,166.70742 0 0 0 522.44922,27.324219 Z"
       transform="scale(0.26458333)"
       id="path6621"
       inkscape:connector-curvature="0" />
  </g>
  <g
     inkscape:groupmode="layer"
     id="layer4"
     inkscape:label="map"
     style="display:inline"
     transform="translate(-1499.1517,-369.00521)">
    <g
       id="g5801"
       style="fill:#009d00;fill-opacity:1"
       transform="matrix(0.65341621,0,0,0.65341621,345.57034,232.09144)">
      <g
         transform="matrix(0.26458333,0,0,0.26458333,1850.1053,354.84644)"
         id="g5391"
         style="fill:#009d00;fill-opacity:1">
        <path
           style="fill:#009d00;fill-opacity:1"
           d="M 414.82574,7.3344863e-6 C 404.36814,-0.00399267 393.55354,1.6691673 390.76324,5.0312573 c -2.2537,2.71555 -13.683,6.9150297 -25.375,9.3437497 -42.949,8.92156 -52.358,12.31674 -54.6875,19.65625 -1.2581,3.96396 -3.1635,6.30538 -4.25,5.21875 -5.5938,-5.59379 -44.85565,27.66138 -49.65625,42.0625 -0.878,2.63412 -8.9744,5.79055 -18,7 -15.205,2.03753 -16.3249,2.91916 -15.25,12.125003 1.7636,15.10538 -5.0197,24.46333 -18.6875,25.78125 -8.9055,0.85873 -11.7145,2.79486 -10.9375,7.46875 0.5775,3.47204 -3.1517,9.02472 -8.3125,12.40625 -5.1427,3.36962 -11.42495,10.49785 -13.96875,15.84375 -2.5439,5.34589 -8.34955,11.37191 -12.90625,13.375 -10.8841,4.78447 -10.67645,15.89039 0.34375,18.65625 8.0234,2.01373 8.54985,3.74224 7.59375,24.96875 -0.21115,4.68906 -0.78371,10.33131 -1.65625,16.46875 h 367.8125 c -1.4824,-5.98002 -0.57165,-9.94004 1.71875,-16.78125 2.5348,-7.57092 4.43355,-16.46358 4.21875,-19.75 -0.6119,-9.35936 14.03295,-15.46056 26.09375,-10.875 14.1714,5.38791 35.58925,-8.143 35.65625,-22.53125 0.0251,-5.43544 2.54985,-12.36242 5.59375,-15.40625 3.0439,-3.04383 5.53125,-6.5877 5.53125,-7.875 0,-1.28729 4.28035,-11.11968 9.53125,-21.84375 7.2147,-14.73429 12.64275,-20.704693 22.15625,-24.437503 14.8419,-5.8235 15.27975,-8.37532 4.28125,-24.53125 -8.8652,-13.02221 -23.48055,-16.62316 -27.28125,-6.71875 -1.1681,3.04383 -3.61645,5.53125 -5.46875,5.53125 -1.8524,0 -9.9638,4.17694 -18,9.25 -8.0361,5.07306 -16.98765,9.21875 -19.90625,9.21875 -2.9187,0 -8.7165,5.4903 -12.875,12.218753 -13.1203,21.22915 -18.56735,24.24045 -38.40625,21.15625 -22.1774,-3.44776 -29.4227,-9.62463 -19.6875,-16.8125 6.6812,-4.93308 6.639,-5.399283 -0.9375,-15.031253 -4.4362,-5.63987 -7.78125,-15.28807 -7.78125,-22.34375 0,-6.82862 -1.75745,-12.40625 -3.90625,-12.40625 -2.149,0 -2.8792,-1.65828 -1.625,-3.6875 1.254,-2.02922 -0.5253,-3.6875 -3.9375,-3.6875 -5.096,0 -5.3978,-0.9851 -1.625,-5.53125 2.5263,-3.04384 6.8922,-5.53125 9.6875,-5.53125 8.2562,0 5.90155,-4.87562 -7.53125,-15.59375 -9.5434,-7.61463 -17.1424,-10.25288 -31.1875,-10.75 C 445.50404,10.244467 437.86079,8.1669573 436.66949,5.0625073 435.37879,1.6988573 425.28334,0.00400733 414.82574,7.3344863e-6 Z M 422.85699,15.750007 c 2.9037,-0.0456 6.16665,0.35847 9.71875,1.25 7.869,1.97499 9.5331,4.32245 8.625,12.15625 -0.9476,8.17429 -3.1892,9.85556 -14.1875,10.78125 -15.0654,1.26801 -18.3125,-0.95454 -18.3125,-12.53125 0,-7.3179 5.44485,-11.5194 14.15625,-11.65625 z"
           id="rect4"
           inkscape:connector-curvature="0" />
        <path
           style="fill:#009d00;fill-opacity:1"
           d="m 165.01324,235.40626 c -3.60286,25.34239 -12.00922,59.26008 -18.125,70.6875 -5.2523,9.81412 -2.32945,30.3305 6.15625,43.28125 5.2181,7.96385 5.17975,10.55345 -0.40625,28.3125 -6.4677,20.56277 -5.4886,27.43668 6.3125,43.625 7.68973,10.54854 7.43905,16.95396 -2.5,49.53125 h 455.65625 c 0.43717,-0.3672 0.89339,-0.65895 1.375,-0.84375 3.0438,-1.16805 5.52125,-4.85345 5.53125,-8.1875 0.005,-3.33402 5.8314,-15.71539 12.9375,-27.5 10.5013,-17.4153 12.1814,-22.77431 9,-28.71875 -2.1527,-4.02243 -4.33785,-14.30013 -4.84375,-22.84375 -1.2695,-21.43917 -36.6737,-70.09555 -49.375,-67.84375 -4.5659,0.80944 -8.3125,0.1423 -8.3125,-1.46875 0,-1.61109 -3.3164,-3.99314 -7.375,-5.28125 -4.0583,-1.28812 -7.375,-4.7179 -7.375,-7.625 0,-2.90706 -1.6584,-5.28125 -3.6875,-5.28125 -2.0292,0 -3.6875,-1.98446 -3.6875,-4.40625 0,-2.42175 -5.9406,-16.54095 -13.1875,-31.40625 -5.79082,-11.87844 -8.97036,-18.74311 -10.28125,-24.03125 z"
           id="rect6"
           inkscape:connector-curvature="0" />
        <path
           style="fill:#009d00;fill-opacity:1"
           d="m 156.45074,470.84376 c -0.15648,0.5129 -0.30746,0.97398 -0.46875,1.5 -3.4222,11.16072 -7.5856,28.97516 -9.25,39.59375 -1.6645,10.61861 -5.6515,21.96391 -8.875,25.1875 -3.2237,3.22358 -5.875,8.16872 -5.875,11 0,5.79421 -22.2659,28.79328 -29.5,30.46875 -8.054999,1.86563 -36.906249,23.04653 -36.906249,27.09375 0,8.85438 -21.3052,33.16074 -34.125,38.9375 -7.6096,3.42894 -14.02755,7.58002 -14.28125,9.21875 -0.2536,1.63869 -0.7136,4.22809 -1,5.75 -0.2865,1.52192 -4.42385,13.18469 -9.2187496,25.90625 -3.24837,8.61837 -5.23959,15.05163 -6.21875001,20.78125 H 463.88824 c -8.34153,-10.81928 -15.85432,-25.45054 -18.09375,-37.4375 -3.0838,-16.50713 0.95745,-37.84375 7.15625,-37.84375 1.6108,0 3.9637,-4.18743 5.25,-9.3125 4.0482,-16.12955 41.65775,-46.03125 57.90625,-46.03125 3.8266,0 6.96875,-1.50734 6.96875,-3.34375 0,-1.83641 7.0634,-7.53386 15.6875,-12.65625 8.6242,-5.12238 21.18615,-14.39385 27.90625,-20.625 6.7203,-6.23118 13.75225,-11.34375 15.65625,-11.34375 1.904,0 3.46875,-2.2404 3.46875,-5 0,-2.75959 4.0484,-8.06278 9,-11.78125 4.9517,-3.71845 8.2387,-8.0014 7.3125,-9.5 -0.9262,-1.49863 0.0315,-3.75667 2.09375,-5.03125 2.0623,-1.27457 3.75,-7.24966 3.75,-13.28125 0,-5.39023 1.68695,-10.17591 4.15625,-12.25 z m 515.59375,38.96875 c -4.1107,-0.22673 -19.43635,15.54259 -17.53125,18.625 0.9469,1.53213 4.9498,0.79509 8.875,-1.65625 7.4555,-4.65599 12.4296,-13.60164 9.3125,-16.71875 -0.166,-0.166 -0.38215,-0.2349 -0.65625,-0.25 z m -49.5625,21.5625 c -1.9095,0 -3.46875,1.65829 -3.46875,3.6875 0,2.02923 2.5864,3.6875 5.75,3.6875 3.1635,0 4.72295,-1.65827 3.46875,-3.6875 -1.2541,-2.02921 -3.8406,-3.6875 -5.75,-3.6875 z m -44.34375,147.625 c -5.6888,0.24206 -7.09375,2.54946 -7.09375,10.5625 0,6.41332 0.44156,11.95173 1.3125,16.71875 h 52.59375 c -6.21102,-10.68452 -32.63784,-27.24581 -45.59375,-27.28125 -0.4181,-10e-4 -0.83945,-0.0161 -1.21875,0 z"
           id="rect8"
           inkscape:connector-curvature="0" />
        <path
           style="fill:#009d00;fill-opacity:1"
           d="m 0.73199139,706.28126 c -1.06409,6.22658 -0.93021,11.61682 0.15625,17.9375 1.47570001,8.58527 2.62425001,19.94876 2.53125001,25.21875 -0.1046,5.92589 4.4443,14.4621 11.9374996,22.40625 9.0074,9.54966 13.2524,18.64341 16.5625,35.46875 4.3698,22.2112 4.7023,22.69889 18.125,24.8125 19.74,3.10825 34.5243,11.53146 45.0625,25.75 5.072999,6.84482 17.940349,22.61655 28.593749,35.03125 l 19.375,22.5625 0.0312,26.25 h 565.59375 c -0.37653,-0.68211 -0.75955,-1.35959 -1.15625,-2.0625 -14.9566,-26.5017 -14.8656,-46.74507 0.3125,-76.8125 12.7796,-25.3165 11.3464,-29.84755 -10.6875,-33.9375 -11.1147,-2.06308 -11.98875,-1.58037 -9.78125,5.375 2.1443,6.75606 1.5481,7.19414 -5.0625,3.65625 -4.1172,-2.2034 -13.91885,-4 -21.78125,-4 -7.8625,0 -16.90105,-2.08847 -20.09375,-4.625 -5.2147,-4.14297 -9.42655,-25.03828 -12.09375,-59.96875 -1.3701,-17.94404 -5.7447,-27.65405 -12.375,-27.59375 -8.847,0.0805 -12.65475,3.63791 -20.59375,19.25 -7.8898,15.51521 -24.80405,21.55166 -39.03125,13.9375 -7.4247,-3.97362 -7.58975,-4.84634 -2.21875,-10.78125 3.2122,-3.54941 5.84375,-10.06279 5.84375,-14.46875 0,-7.35388 -1.87025,-8 -22.71875,-8 -18.4087,0 -24.9697,-1.71443 -34.5625,-9.03125 -6.5092,-4.96476 -15.96695,-10.07272 -21.03125,-11.34375 -5.223,-1.31091 -11.72174,-7.17185 -17.78125,-15.03125 H 0.73194139 Z m 571.62499861,0 c 1.92181,10.51883 6.03417,17.27888 12.8125,21.375 5.4113,3.27007 10.6729,5.68562 11.6875,5.375 6.5298,-1.999 29.42125,-19.68823 29.40625,-22.71875 -0.006,-1.18464 -0.46129,-2.56695 -1.3125,-4.03125 z"
           id="rect10"
           inkscape:connector-curvature="0" />
        <path
           style="fill:#009d00;fill-opacity:1"
           d="m 143.10699,941.71876 v 2.15625 c 0.031,15.62109 1.29035,30.3117 2.78125,32.625 1.4908,2.3133 27.6241,19.1882 58.0625,37.49999 30.4383,18.3118 59.02775,36.4655 63.53125,40.375 7.49587,6.5075 15.22528,36.2063 31.84375,122.7813 h 152.03125 c 0.8694,-4.683 3.49646,-7.5163 9.125,-12.5313 5.9042,-5.2609 14.0813,-16.1697 18.1875,-24.2187 7.0927,-13.9028 8.41085,-14.6899 26.59375,-15.75 l 19.15625,-1.0938 12.40625,-24 c 26.9939,-52.2181 77.10535,-89.5698 141.21875,-105.28124 43.33291,-10.61907 48.88678,-19.5369 30.65625,-52.5625 z"
           id="rect12"
           inkscape:connector-curvature="0" />
        <path
           style="fill:#009d00;fill-opacity:1"
           d="m 299.32574,1177.1563 c 0.35279,1.8378 0.67033,3.5478 1.03125,5.4375 1.1627,6.0877 10.44615,51.7216 20.65625,101.4375 10.21,49.7159 18.8992,96.2102 19.3125,103.3125 0.4132,7.1023 2.03105,15.8237 3.59375,19.375 1.71098,3.8876 2.81181,5.9313 6.0625,5.875 3.68412,-0.064 10.12757,-2.8252 23.3125,-8.6563 11.4711,-5.073 24.1857,-9.2187 28.25,-9.2187 4.0644,0 8.33035,-2.4084 9.46875,-5.375 1.1383,-2.9666 4.9881,-6.3345 8.5625,-7.4688 3.5743,-1.1345 9.6523,-8.2454 13.5,-15.8125 3.8478,-7.5669 12.85215,-19.6543 20.03125,-26.8437 29.1828,-29.2253 33.2267,-59.9139 13.375,-101.4063 -6.7689,-14.1472 -13.30565,-34.2606 -14.53125,-44.6875 -0.9002,-7.6577 -1.26352,-12.361 -0.59375,-15.9687 z"
           id="rect14"
           inkscape:connector-curvature="0" />
        <path
           transform="translate(-1441.3644,-19.938633)"
           inkscape:connector-curvature="0"
           id="path5776"
           d="m 1444.4242,721.59366 c 0,-1.20113 3.6032,-12.5918 8.0071,-25.31261 6.9435,-20.05625 9.3223,-23.89076 17.9069,-28.86504 13.7688,-7.97817 28.341,-22.51354 34.4493,-34.36234 5.91,-11.464 19.7519,-23.65949 36.8135,-32.43457 24.6819,-12.69434 41.3121,-39.7011 50.4637,-81.95079 3.0818,-14.22774 5.6034,-26.23412 5.6034,-26.68086 0,-0.44673 102.0773,-0.81224 226.8384,-0.81224 h 226.8384 l -2.3095,10.26186 c -5.332,23.69188 -23.3976,44.94931 -59.9922,70.59184 -11.6875,8.18966 -22.7893,16.74496 -24.6706,19.01176 -1.8812,2.2668 -6.1573,4.12146 -9.5024,4.12146 -8.0732,0 -36.4761,18.55755 -46.3343,30.27327 -4.3189,5.13277 -9.0389,12.73529 -10.4888,16.8945 -1.4499,4.1592 -3.6267,7.56218 -4.8373,7.56218 -3.5228,0 -8.2097,16.25096 -8.2073,28.45746 0,6.7477 3.228,18.04069 8.0933,28.32487 l 8.0911,17.10312 h -228.3814 c -125.6097,0 -228.3813,-0.98274 -228.3813,-2.18387 z"
           style="fill:#009d00;fill-opacity:1;stroke-width:2.73649788" />
        <path
           transform="translate(-1441.3644,-19.938633)"
           inkscape:connector-curvature="0"
           id="path5778"
           d="m 1601.6565,482.28159 c 1.0396,-3.38642 2.5657,-11.94824 3.3914,-19.02628 1.2401,-10.63121 0.2531,-14.99884 -5.6758,-25.11577 -8.1035,-13.82748 -8.8342,-23.95778 -3.2433,-44.96164 3.6873,-13.85252 3.5587,-15.20001 -2.7423,-28.73323 -8.313,-17.85471 -8.2969,-24.27161 0.1239,-49.3568 3.7336,-11.1222 8.2943,-29.00378 10.1348,-39.73683 l 3.3464,-19.51465 h 182.5304 182.5304 l 8.705,18.47136 c 4.7878,10.15925 10.6886,23.39706 13.1129,29.41735 2.4243,6.0203 6.0116,12.57323 7.9719,14.56208 1.9602,1.98885 3.5718,4.4517 3.5813,5.473 0.025,2.68024 16.0949,11.43465 20.9899,11.43465 7.7572,0 19.6869,11.04638 31.8453,29.48704 12.7652,19.36124 16.0179,27.59244 21.0833,53.35305 l 3.106,15.7959 -13.2083,27.17891 -13.2083,27.17891 -228.1326,0.12503 -228.1326,0.12504 z"
           style="fill:#009d00;fill-opacity:1;stroke-width:2.73649788" />
        <path
           transform="translate(-1441.3644,-19.938633)"
           inkscape:connector-curvature="0"
           id="path5780"
           d="m 1608.5967,234.62853 c -0.016,-17.62977 -0.3891,-18.68296 -8.1791,-23.11553 -9.2354,-5.25504 -8.7447,-10.47428 1.5003,-15.95724 3.6829,-1.971 6.6961,-4.50775 6.6961,-5.6372 0,-1.12946 6.1572,-8.79043 13.6825,-17.02439 7.5254,-8.23395 13.6825,-16.80697 13.6825,-19.05114 0,-2.54416 4.575,-5.23231 12.1518,-7.14019 14.1761,-3.56957 15.9476,-5.75427 17.8787,-22.04777 1.4087,-11.88623 1.7176,-12.2145 14.5718,-15.48557 10.7574,-2.73749 16.0937,-6.57344 29.5048,-21.209291 17.0583,-18.61611 33.4013,-30.68081 37.8424,-27.936023 1.4242,0.880181 3.3772,-0.881708 4.34,-3.91531 2.4159,-7.61179 7.4318,-9.810873 40.0351,-17.552386 15.614,-3.707461 34.4414,-9.434877 41.8388,-12.72759 14.5001,-6.454331 36.411,-6.170501 44.5412,0.576981 2.2274,1.848572 11.5021,4.239733 20.6104,5.31369 11.5678,1.363955 19.8881,4.297986 27.5978,9.731939 11.7451,8.278242 15.8167,14.620536 9.3859,14.620536 -2.1498,0 -5.8693,2.16643 -8.2655,4.814287 -4.017,4.438679 -3.8366,5.315089 2.3123,11.233215 3.8667,3.721527 6.6693,9.553177 6.6693,13.877421 0,4.102172 3.0396,13.462519 6.7547,20.800771 6.2079,12.26216 6.4026,13.73141 2.4046,18.14909 -2.3925,2.64375 -3.6531,6.62314 -2.8012,8.84309 1.8959,4.94077 18.4928,9.81421 33.4933,9.8348 11.5997,0.0159 19.193,-5.69008 29.7605,-22.36353 2.8384,-4.47847 13.8833,-11.87497 28.4033,-19.02107 13.0674,-6.431164 25.7442,-14.084599 28.1706,-17.007633 6.4791,-7.805036 17.2872,-4.03756 25.9437,9.043414 3.9081,5.905469 6.2897,12.057309 5.2926,13.670759 -0.9972,1.61345 -6.5694,5.36003 -12.3826,8.32574 -8.6324,4.40391 -12.5801,9.40903 -21.5391,27.30872 -6.0333,12.05409 -12.892,24.6611 -15.2415,28.01557 -2.3496,3.35447 -4.272,8.99832 -4.272,12.54189 0,3.54358 -3.5995,10.04241 -7.999,14.44185 -7.3002,7.3002 -9.6538,7.999 -26.9408,7.999 -19.386,0 -27.9996,4.25086 -27.9996,13.81784 0,2.09503 -1.5115,10.31018 -3.3588,18.25588 l -3.3587,14.44674 H 1789.9689 1608.614 Z M 1879.5273,56.072046 c 7.1047,-7.104674 6.9233,-12.356302 -0.6089,-17.632066 -7.0279,-4.922581 -16.612,-5.487794 -24.1994,-1.427139 -5.9991,3.210571 -7.2127,16.045037 -2.0093,21.248403 5.2031,5.203182 20.6894,3.938994 26.8176,-2.189198 z"
           style="fill:#009d00;fill-opacity:1;stroke-width:2.73649788" />
        <path
           transform="translate(-1441.3644,-19.938633)"
           inkscape:connector-curvature="0"
           id="path5782"
           d="m 1586.6328,947.48623 c -0.082,-10.70584 -2.3597,-14.34859 -28.6593,-45.83634 -32.0539,-38.37728 -39.7184,-44.70865 -59.8244,-49.41938 -7.7252,-1.80995 -15.4196,-4.37449 -17.0988,-5.69897 -1.6792,-1.32449 -4.6259,-9.81962 -6.5482,-18.87808 -3.0833,-14.52898 -8.8591,-25.8355 -23.0089,-45.04123 -4.1689,-5.65852 -10.8831,-49.40436 -8.2392,-53.68222 0.8442,-1.36588 101.1501,-2.41599 230.7734,-2.41599 h 229.2802 l 5.213,5.85068 c 2.8671,3.21787 9.1661,7.52392 13.9977,9.569 4.8317,2.04507 14.6163,7.41652 21.7437,11.93656 10.824,6.86442 15.7638,8.21824 29.9864,8.21824 9.3653,0 18.9756,0.74746 21.3563,1.66102 5.4245,2.08157 5.5631,9.34325 0.3108,16.28731 -6.8522,9.05947 -5.0882,14.38486 5.7568,17.37931 12.3285,3.40407 25.3447,-1.33909 32.811,-11.95647 11.3728,-16.17269 18.1277,-23.37117 21.931,-23.37117 5.8506,0 10.9823,14.93599 13.1629,38.31097 2.603,27.90184 6.5961,45.5334 11.1723,49.33131 2.0996,1.74251 11.5584,4.22193 21.0194,5.50981 9.4611,1.28789 20.1672,3.21564 23.7913,4.2839 5.7704,1.70091 6.3974,1.20841 5.0451,-3.96289 -1.7938,-6.85926 2.9637,-7.68616 16.6905,-2.90098 10.9418,3.81434 10.9063,7.96494 -0.2698,31.57892 -7.4295,15.69776 -8.8768,21.92127 -8.8215,37.93408 0.045,12.92039 1.6244,22.05035 4.8532,28.04911 l 4.787,8.89361 h -280.5613 -280.5613 l -0.089,-11.63011 z"
           style="fill:#009d00;fill-opacity:1;stroke-width:2.73649788" />
        <path
           transform="translate(-1441.3644,-19.938633)"
           inkscape:connector-curvature="0"
           id="path5784"
           d="m 1732.455,1151.2154 c -11.4906,-55.9541 -16.1,-71.0283 -23.9018,-78.1661 -3.5116,-3.2127 -29.5027,-20.0027 -57.758,-37.311 -68.3051,-41.84159 -64.0731,-38.03288 -64.0731,-57.66509 v -16.22037 h 281.5621 281.5622 l 4.4018,11.00137 c 2.4211,6.05075 4.4019,13.34992 4.4019,16.22037 0,7.92574 -12.2751,15.93692 -33.8789,22.11052 -53.227,15.2104 -81.809,30.8184 -112.6134,61.4959 -16.3435,16.2761 -25.0017,27.7279 -33.7515,44.6418 -6.4729,12.5124 -13.2051,23.1639 -14.9606,23.6699 -1.7554,0.506 -10.5743,1.9671 -19.5974,3.2469 -15.5624,2.2072 -16.8285,2.9745 -24.6285,14.9253 -4.5225,6.9291 -12.8374,17.7041 -18.4775,23.9443 l -10.2547,11.346 h -74.5767 -74.5767 z"
           style="fill:#009d00;fill-opacity:1;stroke-width:2.73649788" />
        <path
           transform="translate(-1441.3644,-19.938633)"
           inkscape:connector-curvature="0"
           id="path5786"
           d="m 1787.857,1429.7978 c -0.8889,-1.4383 -3.4592,-14.034 -5.7118,-27.9903 -2.2525,-13.9564 -12.0486,-64.8757 -21.7691,-113.1541 -9.7205,-48.2783 -17.6737,-88.6074 -17.6737,-89.6203 0,-1.0128 33.0356,-1.8414 73.4125,-1.8414 h 73.4124 l 3.1898,17.1031 c 1.7543,9.4067 8.0911,29.4173 14.0815,44.4681 18.0814,45.4282 15.0249,66.2671 -14.8915,101.5309 -8.3428,9.834 -16.8893,21.1825 -18.9922,25.2188 -6.2396,11.9763 -23.5213,25.2708 -39.7628,30.5887 -8.3578,2.7366 -21.6046,7.5262 -29.4374,10.6437 -8.401,3.3436 -14.9042,4.5955 -15.8577,3.0528 z"
           style="fill:#009d00;fill-opacity:1;stroke-width:2.73649788" />
      </g>
    </g>
  </g>
  <g
     inkscape:groupmode="layer"
     id="layer7"
     inkscape:label="outils"
     style="display:inline"
     transform="translate(-18.098907,-4.2295328)">
    <path
       style="fill:#000000;stroke:#ffffff;stroke-width:2;stroke-linecap:butt;stroke-linejoin:miter;stroke-opacity:1"
       d="M 77.109377,254.05468 93.5811,267.9923 c 0,0 -1.267055,-2.71513 -0.362016,-6.33529 0.905039,-3.62016 79.314046,-118.99375 79.314046,-118.99375 l -7.9355,-5.88763 c 0,0 -77.819097,112.12094 -81.402873,114.16881 -3.583773,2.04787 -6.08538,3.11024 -6.08538,3.11024 z"
       id="path6631"
       inkscape:connector-curvature="0"
       sodipodi:nodetypes="ccsccsc" />
    <path
       style="fill:#000000;stroke:#ffffff;stroke-width:2;stroke-linecap:butt;stroke-linejoin:miter;stroke-opacity:1"
       d="m 161.52582,122.44053 c 5.37566,2.55984 13.18317,9.21542 13.18317,9.21542 l 21.37466,15.48703 -17.02293,15.29504 c 0,0 -3.45579,-17.02293 -7.03956,-20.60671 -3.58377,-3.58377 -7.9355,-5.82363 -7.9355,-5.82363 0,0 -1.08793,-4.15974 -2.87982,-5.69565 -1.79188,-1.5359 -13.04308,-7.25863 -13.63136,-8.70669 -2.61629,-6.88439 12.0134,-0.0548 13.95134,0.83519 z"
       id="path6633"
       inkscape:connector-curvature="0"
       sodipodi:nodetypes="ccccccscc" />
    <path
       style="fill:#000000;stroke:#ffffff;stroke-width:2;stroke-linecap:butt;stroke-linejoin:miter;stroke-opacity:1"
       d="m 77.691103,126.92025 -3.071804,4.22373 5.759635,4.99169 1.279919,6.27161 1.407912,1.02393 v 1.6639 l 2.175864,2.30385 h 2.04787 l 1.91988,2.43185 2.04787,0.12799 0.255984,1.40791 59.516247,78.71504 -1.91988,3.32779 2.43185,3.1998 2.68783,-1.15193 14.20711,18.30285 -1.27992,2.30385 10.11136,11.13531 6.01562,-6.91157 -5.50365,-3.96775 13.69513,-14.3351 2.17587,1.5359 -0.12799,3.83976 8.44746,-6.52759 -4.86369,-6.78357 -3.07181,-0.51197 -2.81582,-1.79188 0.12799,-2.55984 -2.04787,-1.91988 -3.45578,0.12799 -88.05845,-82.93877 -1.15193,-4.47972 -4.223732,-4.60771 -1.791888,-0.51197 -6.271606,-4.22373 -5.375661,-4.22374 z"
       id="path6635"
       inkscape:connector-curvature="0" />
    <path
       style="fill:#ffffff;stroke:#ffffff;stroke-width:3;stroke-linecap:butt;stroke-linejoin:miter;stroke-opacity:1"
       d="m 169.20534,254.14423 18.68682,-19.83874"
       id="path6637"
       inkscape:connector-curvature="0" />
    <path
       style="fill:#ffffff;stroke:#ffffff;stroke-width:2;stroke-linecap:butt;stroke-linejoin:miter;stroke-opacity:1"
       d="m 165.62156,249.66452 20.47871,-21.50265"
       id="path6639"
       inkscape:connector-curvature="0" />
    <path
       style="fill:#ffffff;stroke:#ffffff;stroke-width:2;stroke-linecap:butt;stroke-linejoin:miter;stroke-opacity:1"
       d="m 148.85462,227.52191 18.04686,-18.04686"
       id="path6641"
       inkscape:connector-curvature="0" />
    <path
       style="fill:#ffffff;stroke:#ffffff;stroke-width:2;stroke-linecap:butt;stroke-linejoin:miter;stroke-opacity:1"
       d="m 146.10609,223.56884 17.38446,-17.22902"
       id="path6643"
       inkscape:connector-curvature="0" />
    <path
       style="fill:#ffffff;stroke:#ffffff;stroke-width:2;stroke-linecap:butt;stroke-linejoin:miter;stroke-opacity:1"
       d="m 143.54252,220.17832 17.0505,-16.56757"
       id="path6645"
       inkscape:connector-curvature="0" />
    <path
       style="fill:#ffffff;stroke:#ffffff;stroke-width:2;stroke-linecap:butt;stroke-linejoin:miter;stroke-opacity:1"
       d="m 139.96073,215.44111 11.45373,-11.85369"
       id="path6647"
       inkscape:connector-curvature="0" />
    <path
       style="fill:#ffffff;stroke:#ffffff;stroke-width:2;stroke-linecap:butt;stroke-linejoin:miter;stroke-opacity:1"
       d="m 106.39705,171.05044 9.81974,-9.23591"
       id="path6649"
       inkscape:connector-curvature="0" />
    <path
       style="fill:#ffffff;stroke:#ffffff;stroke-width:2;stroke-linecap:butt;stroke-linejoin:miter;stroke-opacity:1"
       d="m 102.75369,166.2318 9.20434,-8.42843"
       id="path6651"
       inkscape:connector-curvature="0" />
    <path
       style="fill:#ffffff;stroke:#ffffff;stroke-width:2;stroke-linecap:butt;stroke-linejoin:miter;stroke-opacity:1"
       d="m 91.280775,150.0827 6.466253,-5.77848"
       id="path6653"
       inkscape:connector-curvature="0" />
    <path
       style="fill:#ffffff;stroke:#ffffff;stroke-width:2;stroke-linecap:butt;stroke-linejoin:miter;stroke-opacity:1"
       d="m 87.290499,147.39896 8.673989,-8.15381"
       id="path6655"
       inkscape:connector-curvature="0" />
    <path
       style="fill:#ffffff;stroke:#ffffff;stroke-width:2;stroke-linecap:butt;stroke-linejoin:miter;stroke-opacity:1"
       d="m 82.983053,143.37033 9.004509,-8.12336"
       id="path6657"
       inkscape:connector-curvature="0" />
    <path
       style="fill:#ffffff;stroke:#ffffff;stroke-width:2;stroke-linecap:butt;stroke-linejoin:miter;stroke-opacity:1"
       d="m 79.760092,135.59934 4.854347,-4.78699"
       id="path6659"
       inkscape:connector-curvature="0" />
    <path
       style="fill:#ffffff;stroke:#ffffff;stroke-width:2;stroke-linecap:butt;stroke-linejoin:miter;stroke-opacity:1"
       d="m 76.656127,132.90923 4.65509,-4.66222"
       id="path6661"
       inkscape:connector-curvature="0" />
  </g>
  <g
     inkscape:groupmode="layer"
     id="layer3"
     inkscape:label="casque"
     transform="translate(-18.098907,-4.2295328)">
    <path
       inkscape:connector-curvature="0"
       id="path6669"
       d="m 89.66396,210.45488 3.374117,0.36202 h 93.250133 l -10.60446,-12.55791 -0.55812,-6.13942 c 0,0 -5.02317,-13.39511 -20.09266,-25.95303 -15.06949,-12.55791 -34.8831,-12.55791 -34.8831,-12.55791 l -2.79064,13.67417 -12.27885,9.76728 c 0,0 -0.0908,17.59319 -5.09101,22.58912 -2.914779,2.91228 -10.32541,10.81568 -10.32541,10.81568 z"
       style="fill:#ffffff;stroke:none;stroke-width:2.18033075;stroke-linecap:butt;stroke-linejoin:miter;stroke-opacity:1"
       sodipodi:nodetypes="cccccscccsc" />
    <path
       style="fill:#ff6600;stroke:#000000;stroke-width:2;stroke-linecap:butt;stroke-linejoin:miter;stroke-opacity:1"
       d="m 94.509645,208.45111 h 87.802475 l -9.72739,-11.51927 -0.51196,-5.63164 c 0,0 -4.60772,-12.28723 -18.43084,-23.80651 -13.82312,-11.51927 -31.99799,-11.51927 -31.99799,-11.51927 l -2.55983,12.54321 -11.26329,8.95944 c 0,0 -2.04787,16.89493 -3.83976,20.22272 -1.79189,3.32779 -9.471415,10.75132 -9.471415,10.75132 z"
       id="path6663"
       inkscape:connector-curvature="0" />
    <path
       style="fill:#0000ff;stroke:none;stroke-width:0.26458332px;stroke-linecap:butt;stroke-linejoin:miter;stroke-opacity:1"
       d="m 162.80574,201.53955 -24.57255,8.4e-4 -24.57256,8.4e-4 24.57256,-36.35055 z"
       id="path6665"
       inkscape:connector-curvature="0"
       sodipodi:nodetypes="ccccc" />
  </g>
  <g
     inkscape:groupmode="layer"
     id="layer6"
     inkscape:label="drapeau"
     style="display:inline"
     transform="translate(-1499.1517,-369.00521)">
    <circle
       r="35.336002"
       cy="416.95474"
       cx="1619.2841"
       id="circle5111"
       style="opacity:1;fill:none;fill-opacity:1;fill-rule:evenodd;stroke:#000000;stroke-width:0.2413286;stroke-linecap:round" />
    <circle
       style="opacity:1;fill:#ffffff;fill-opacity:1;fill-rule:evenodd;stroke:#d40000;stroke-width:3.53681135;stroke-linecap:round"
       id="circle5122"
       cx="1619.2841"
       cy="416.95474"
       r="35.336002" />
    <g
       id="g5126"
       style="fill:#d40000"
       transform="matrix(1.1789371,0,0,1.1789371,1395.0549,327.14287)">
      <path
         transform="matrix(1.5154281,-1.4422511,1.4422511,1.5154281,-217.80645,254.95765)"
         inkscape:transform-center-y="0.4640324"
         inkscape:transform-center-x="1.6483781"
         d="m 204.45175,76.441508 -0.45585,5.090443 -2.70186,-4.338247 -4.98216,1.139494 3.291,-3.91021 -2.6233,-4.386197 4.7358,1.921604 3.36088,-3.850313 -0.36411,5.097827 4.70044,2.006573 z"
         inkscape:randomized="0"
         inkscape:rounded="0"
         inkscape:flatsided="false"
         sodipodi:arg2="1.3369448"
         sodipodi:arg1="0.70862627"
         sodipodi:r2="7.0801644"
         sodipodi:r1="2.7612641"
         sodipodi:cy="74.644501"
         sodipodi:cx="202.35524"
         sodipodi:sides="5"
         id="path5120"
         style="opacity:1;fill:#d40000;fill-opacity:1;fill-rule:evenodd;stroke:none;stroke-width:0.25;stroke-linecap:round"
         sodipodi:type="star" />
      <path
         style="fill:#d40000;fill-opacity:1;stroke-width:0.26458332"
         d="m 190.47483,51.233047 a 24.958427,24.958427 0 0 0 -24.95868,24.958167 24.958427,24.958427 0 0 0 24.95868,24.958686 24.958427,24.958427 0 0 0 22.12113,-13.443627 20.222726,20.222726 0 0 1 -16.61759,8.707996 20.222726,20.222726 0 0 1 -20.22254,-20.223055 20.222726,20.222726 0 0 1 20.22254,-20.222538 20.222726,20.222726 0 0 1 16.74782,8.919869 24.958427,24.958427 0 0 0 -22.25136,-13.655498 z"
         id="path6608"
         inkscape:connector-curvature="0" />
    </g>
  </g>
  <g
     inkscape:groupmode="layer"
     id="layer9"
     inkscape:label="epi"
     transform="translate(-18.098907,-4.2295328)">
    <path
       style="fill:#009d00;fill-opacity:1;stroke:none;stroke-width:0.26458332px;stroke-linecap:butt;stroke-linejoin:miter;stroke-opacity:1"
       d="m 224.62584,263.74363 c 0,0 -5.88762,-5.75964 -8.70345,-9.08743 -2.81582,-3.32779 -5.50365,-11.39128 -5.50365,-11.39128 0,0 0.57389,17.51567 4.99169,20.73469 0.63996,0.25599 9.21541,-0.25598 9.21541,-0.25598 z"
       id="path6739"
       inkscape:connector-curvature="0"
       sodipodi:nodetypes="ccccc" />
    <path
       style="fill:#009d00;fill-opacity:1;stroke:none;stroke-width:0.26458332px;stroke-linecap:butt;stroke-linejoin:miter;stroke-opacity:1"
       d="m 225.3298,252.67233 c 0,0 2.81582,-2.68783 3.51978,-4.09574 0.70395,-1.40792 3.39178,-6.33561 3.39178,-6.33561 l 0.44798,-1.15192 c 0.32605,6.01456 0.26774,8.36957 -3.2638,11.51927 -1.02393,0.89595 -3.00781,2.30386 -3.45578,2.43185 -0.44797,0.12799 -1.47191,0 -0.63996,-2.36785 z"
       id="path6741"
       inkscape:connector-curvature="0"
       sodipodi:nodetypes="cccccsc" />
    <path
       style="fill:#009d00;fill-opacity:1;stroke:none;stroke-width:0.26458332px;stroke-linecap:butt;stroke-linejoin:miter;stroke-opacity:1"
       d="m 223.98589,257.21604 c -1.15193,-1.40791 -1.21593,-3.64777 -1.15193,-3.90375 0.064,-0.25599 2.17586,-4.7997 2.17586,-4.7997 0,0 0.25599,-1.08793 -0.31998,-1.40791 -0.57596,-0.31998 -2.36785,-0.12799 -2.43184,-0.57597 -0.064,-0.44797 -1.02394,-2.36784 0.25598,-4.86369 1.27992,-2.49584 7.8715,-8.70345 9.27941,-11.71126 1.40791,-3.00781 1.79189,-8.95944 1.79189,-10.36735 0,-1.40791 -0.51197,-8.31947 -0.51197,-8.31947 0,0 -0.38397,4.7357 -1.98387,7.55152 -1.5999,2.81582 -4.7357,4.99169 -6.3996,7.61552 -1.66389,2.62384 -4.7357,5.50365 -4.99168,8.70345 -1.15193,-7.48752 -4.47972,-11.90324 -6.27161,-14.46308 -4.05203,-3.89351 -3.96608,-6.2127 -4.41572,-12.41522 0,0 -1.5999,4.09574 -1.40791,8.51146 0.19199,4.41572 -0.51197,8.76745 4.09574,15.55102 4.60771,6.78358 6.01562,6.20761 6.65558,8.51147 0.63996,2.30385 0.76796,5.88763 1.6639,6.65558 0.89594,0.76795 2.17586,0.57596 2.17586,0.57596 0,0 0.31998,1.40791 -0.38397,1.91988 -0.70396,0.51197 -3.32779,-1.79189 -3.32779,-1.79189 0,0 1.02393,-0.38397 0.31998,-2.43184 -0.70396,-2.04787 -2.43185,-5.56765 -4.7997,-4.54372 -2.36785,1.02394 -1.15193,4.47972 -0.44797,5.56765 0.70395,1.08793 3.26379,2.17586 3.26379,2.17586 0,0 3.58377,3.39179 3.39179,4.99169 -0.19199,1.5999 0.064,2.43185 0.19198,3.07181 0.128,0.63996 3.58378,0.19198 3.58378,0.19198 z"
       id="path6743"
       inkscape:connector-curvature="0"
       sodipodi:nodetypes="ccccccsscsccccsscscccccccccc" />
    <path
       style="fill:#009d00;fill-opacity:1;stroke:none;stroke-width:0.26458332px;stroke-linecap:butt;stroke-linejoin:miter;stroke-opacity:1"
       d="m 225.00982,241.47303 c 1.21593,-1.21592 2.87982,-2.94381 4.22374,-1.85588 1.34391,1.08793 0.99729,3.73501 -0.44798,5.31167 0,0 -2.0782,1.08196 -3.74702,0.91403 -3.1836,-1.71117 -0.0287,-4.36982 -0.0287,-4.36982 z"
       id="path6745"
       inkscape:connector-curvature="0"
       sodipodi:nodetypes="ccscc" />
    <path
       style="fill:#009d00;fill-opacity:1;stroke:none;stroke-width:0.26458332px;stroke-linecap:butt;stroke-linejoin:miter;stroke-opacity:1"
       d="m 219.96989,228.62306 c -0.40727,-5.52074 -4.66096,-9.95543 -4.79671,-10.54371 -0.13576,-0.58828 -0.27151,-1.40281 0.49777,-1.71957 0.76928,-0.31677 2.2626,1.76482 2.85087,2.85087 0.58828,1.08605 1.26706,2.53411 2.03634,2.80562 0.76929,0.27151 2.03634,-2.17209 2.94138,-1.81008 0.90504,0.36202 1.62907,1.40282 0.76929,2.30786 -0.85979,0.90504 -1.62908,2.85087 -1.85534,4.11793 -0.22625,1.26705 -1.3123,3.89167 -2.4436,1.99108 z"
       id="path6747"
       inkscape:connector-curvature="0" />
    <path
       style="fill:#009d00;fill-opacity:1;stroke:none;stroke-width:0.26458332px;stroke-linecap:butt;stroke-linejoin:miter;stroke-opacity:1"
       d="m 214.41849,215.33068 c 1.37591,-0.47997 1.88788,-1.43991 1.5679,-2.59184 -0.31998,-1.15192 -1.72789,-4.47971 -3.48778,-3.96775 -1.75989,0.51197 -1.79189,3.45579 -1.15193,4.99169 0.63996,1.5359 1.15193,1.50391 3.07181,1.5679 z"
       id="path6749"
       inkscape:connector-curvature="0" />
    <path
       inkscape:connector-curvature="0"
       id="path6751"
       d="m 225.45568,220.16237 c -1.37591,-0.47997 -1.88788,-1.43991 -1.5679,-2.59184 0.31998,-1.15192 1.72789,-4.47971 3.48778,-3.96775 1.75989,0.51197 1.79189,3.45579 1.15193,4.99169 -0.63996,1.5359 -1.15193,1.50391 -3.07181,1.5679 z"
       style="fill:#009d00;fill-opacity:1;stroke:none;stroke-width:0.26458332px;stroke-linecap:butt;stroke-linejoin:miter;stroke-opacity:1" />
    <path
       style="fill:#009d00;fill-opacity:1;stroke:none;stroke-width:0.26458332px;stroke-linecap:butt;stroke-linejoin:miter;stroke-opacity:1"
       d="m 220.27412,218.81846 c 0.76795,-0.51197 -0.25598,-3.32779 0.38397,-4.7357 0.63997,-1.40791 7.55153,-6.84757 9.34342,-12.92719 1.79188,-6.07961 0,-23.7425 0,-23.7425 0,0 -0.19199,5.56765 -1.6639,8.38347 -1.47191,2.81582 -4.99168,5.24767 -6.46359,8.31948 -1.47191,3.0718 -1.34391,14.97505 -1.34391,14.97505 0,0 -0.38398,1.6639 -1.02394,1.5999 -0.63996,-0.064 -2.68783,-2.49584 -2.68783,-5.05568 0,-2.55984 0.064,-7.23154 -1.27992,-10.68733 -1.34392,-3.45578 -6.84757,-9.53539 -7.8715,-14.97505 -1.08793,7.03956 -0.19199,14.07911 0.51196,16.70295 0.70396,2.62383 2.68784,5.56765 4.60771,8.38347 1.91988,2.81582 4.92769,5.24767 5.43966,7.67952 0.51197,2.43184 0.27295,3.55305 0.3182,4.29971 0.0452,0.74666 -0.0703,2.60951 1.72967,1.7799 z"
       id="path6753"
       inkscape:connector-curvature="0" />
    <path
       style="fill:#009d00;fill-opacity:1;stroke:none;stroke-width:0.26458332px;stroke-linecap:butt;stroke-linejoin:miter;stroke-opacity:1"
       d="m 218.48223,200.89959 c 0.51197,-0.12799 1.21593,-1.72789 1.02394,-4.22373 -0.19199,-2.49585 -0.064,-3.96775 0.63996,-5.11968 0.70395,-1.15193 1.98387,-2.68783 2.17586,-3.1998 0.19199,-0.51197 0.31998,-1.40791 -0.31998,-1.91988 -0.63996,-0.51197 -1.27992,-0.63996 -2.11187,0.38398 -0.83194,1.02393 -1.79188,3.32779 -1.79188,3.32779 0,0 -1.15193,-5.18368 -2.49584,-4.67171 -1.34392,0.51197 -1.59991,1.5359 -0.89595,2.87982 0.70396,1.34391 2.30386,1.34391 2.36785,4.03175 0.064,2.68783 -0.82379,7.89103 1.40791,8.51146 z"
       id="path6755"
       inkscape:connector-curvature="0" />
    <path
       inkscape:connector-curvature="0"
       id="path6757"
       d="m 213.71454,184.16464 c 1.37591,-0.47997 1.88788,-1.43991 1.5679,-2.59184 -0.31998,-1.15192 -1.72789,-4.47971 -3.48778,-3.96775 -1.75989,0.51197 -1.79189,3.45579 -1.15193,4.99169 0.63996,1.5359 1.15193,1.50391 3.07181,1.5679 z"
       style="fill:#009d00;fill-opacity:1;stroke:none;stroke-width:0.26458332px;stroke-linecap:butt;stroke-linejoin:miter;stroke-opacity:1" />
    <path
       style="fill:#009d00;fill-opacity:1;stroke:none;stroke-width:0.26458332px;stroke-linecap:butt;stroke-linejoin:miter;stroke-opacity:1"
       d="m 222.92785,185.12458 c -1.37591,-0.47997 -1.88788,-1.43991 -1.5679,-2.59184 0.31998,-1.15192 1.72789,-4.47971 3.48778,-3.96775 1.75989,0.51197 1.79189,3.45579 1.15193,4.99169 -0.63996,1.5359 -1.15193,1.50391 -3.07181,1.5679 z"
       id="path6759"
       inkscape:connector-curvature="0" />
    <path
       inkscape:connector-curvature="0"
       id="path6761"
       d="m 218.54623,185.97217 c 0.76795,-0.55213 -0.25598,-3.58883 0.38397,-5.10717 0.63997,-1.51835 7.55153,-7.3847 9.34342,-13.94121 1.79188,-6.5565 0,-25.60488 0,-25.60488 0,0 -0.19199,6.00438 -1.6639,9.04108 -1.47191,3.03669 -4.99168,5.6593 -6.46359,8.97206 -1.47191,3.31276 -1.34391,16.14971 -1.34391,16.14971 0,0 -0.38398,1.79441 -1.02394,1.72539 -0.63996,-0.069 -2.68783,-2.69161 -2.68783,-5.45225 0,-2.76063 0.064,-7.79878 -1.27992,-11.52565 -1.34392,-3.72685 -6.84757,-10.28335 -7.8715,-16.1497 -1.08793,7.59175 -0.19199,15.18348 0.51196,18.01314 0.70396,2.82964 2.68784,6.00438 4.60771,9.04107 1.91988,3.0367 4.92769,5.6593 5.43966,8.28191 0.51197,2.62259 0.27295,3.83175 0.3182,4.63698 0.0452,0.80523 -0.0703,2.8142 1.72967,1.91952 z"
       style="fill:#009d00;fill-opacity:1;stroke:none;stroke-width:0.27476448px;stroke-linecap:butt;stroke-linejoin:miter;stroke-opacity:1" />
    <path
       inkscape:connector-curvature="0"
       id="path6763"
       d="m 217.25108,163.82039 c 0.16457,-1.25082 0.94683,0.34217 0.93173,-0.6751 -0.0645,-4.34307 -0.84979,-8.70362 3.80212,-14.50157 0.13576,-0.58828 0.27151,-1.40281 -0.49777,-1.71957 -0.76928,-0.31677 -2.2626,1.76482 -2.85087,2.85087 -0.58828,1.08605 -1.26706,2.53411 -2.03634,2.80562 -0.76929,0.27151 -2.03634,-2.17209 -2.94138,-1.81008 -0.90504,0.36202 -1.62907,1.40282 -0.76929,2.30786 0.85979,0.90504 2.14105,1.44296 2.36731,2.71002 0.22625,1.26705 0.86319,9.93254 1.99449,8.03195 z"
       style="fill:#009d00;fill-opacity:1;stroke:none;stroke-width:0.26458332px;stroke-linecap:butt;stroke-linejoin:miter;stroke-opacity:1"
       sodipodi:nodetypes="cscccccccc" />
    <path
       style="fill:#009d00;fill-opacity:1;stroke:none;stroke-width:0.26458332px;stroke-linecap:butt;stroke-linejoin:miter;stroke-opacity:1"
       d="m 212.94659,149.28684 c 1.37591,-0.47997 1.88788,-1.43991 1.5679,-2.59184 -0.31998,-1.15192 -1.72789,-4.47971 -3.48778,-3.96775 -1.75989,0.51197 -1.79189,3.45579 -1.15193,4.99169 0.63996,1.5359 1.15193,1.50391 3.07181,1.5679 z"
       id="path6765"
       inkscape:connector-curvature="0" />
    <path
       inkscape:connector-curvature="0"
       id="path6767"
       d="m 223.11984,146.21503 c -1.37591,-0.47997 -1.88788,-1.43991 -1.5679,-2.59184 0.31998,-1.15192 1.72789,-4.47971 3.48778,-3.96775 1.75989,0.51197 1.79189,3.45579 1.15193,4.99169 -0.63996,1.5359 -1.15193,1.50391 -3.07181,1.5679 z"
       style="fill:#009d00;fill-opacity:1;stroke:none;stroke-width:0.26458332px;stroke-linecap:butt;stroke-linejoin:miter;stroke-opacity:1" />
    <path
       inkscape:connector-curvature="0"
       id="path6769"
       d="m 217.59954,147.15173 c 0.76795,-0.51197 -0.25598,-3.32779 0.38397,-4.7357 0.63997,-1.40791 7.55153,-6.84757 9.34342,-12.92719 1.79188,-6.07961 0,-23.7425 0,-23.7425 0,0 -0.19199,5.56765 -1.6639,8.38347 -1.47191,2.81582 -4.99168,5.24767 -6.46359,8.31948 -1.47191,3.0718 -1.34391,14.97505 -1.34391,14.97505 0,0 -0.38398,1.6639 -1.02394,1.5999 -0.63996,-0.064 -2.68783,-2.49584 -2.68783,-5.05568 0,-2.55984 0.064,-7.23154 -1.27992,-10.68733 -1.34392,-3.45578 -6.84757,-9.53539 -7.8715,-14.97505 -1.08793,7.03956 -0.19199,14.07911 0.51196,16.70295 0.70396,2.62383 2.68784,5.56765 4.60771,8.38347 1.91988,2.81582 4.92769,5.24767 5.43966,7.67952 0.51197,2.43184 0.27295,3.55305 0.3182,4.29971 0.0452,0.74666 -0.0703,2.60951 1.72967,1.7799 z"
       style="fill:#009d00;fill-opacity:1;stroke:none;stroke-width:0.26458332px;stroke-linecap:butt;stroke-linejoin:miter;stroke-opacity:1" />
    <path
       style="fill:#009d00;fill-opacity:1;stroke:none;stroke-width:0.26458332px;stroke-linecap:butt;stroke-linejoin:miter;stroke-opacity:1"
       d="m 215.02645,97.226121 c -0.38397,3.903759 -3.64777,7.807509 -3.1998,14.207109 0.44797,6.39959 2.81583,7.23154 3.51978,12.09523 0.70396,4.8637 -1.48832,11.70736 0.51197,11.83926 2.00029,0.1319 -0.76795,-10.94331 1.5999,-15.03905 2.36785,-4.09574 1.08793,-12.54321 -0.31998,-16.57496 -1.40791,-4.031745 -2.11187,-6.527589 -2.11187,-6.527589 z"
       id="path6771"
       inkscape:connector-curvature="0"
       sodipodi:nodetypes="csczssc" />
    <path
       style="fill:#009d00;fill-opacity:0.99166667;stroke:none;stroke-width:0.26458332px;stroke-linecap:butt;stroke-linejoin:miter;stroke-opacity:1"
       d="m 61.180146,260.92781 c 2.943812,-1.27992 8.255479,-7.87151 8.767447,-10.30335 0.511966,-2.43185 -0.703955,-9.72739 -0.511968,-12.41522 0.191987,-2.68783 0.831947,-11.96725 0.831947,-11.96725 0,0 -1.407911,0.63996 -2.239859,3.1998 -0.831948,2.55984 -0.319979,7.55153 -0.895942,8.89544 -0.575964,1.34392 -3.455784,3.26379 -3.1998,5.11968 0.255985,1.85588 0.767953,6.19697 0,10.43134 -0.76795,2.23986 -0.95994,4.8637 -2.751825,7.03956 z"
       id="path6773"
       inkscape:connector-curvature="0"
       sodipodi:nodetypes="ccscscccc" />
    <path
       sodipodi:nodetypes="ccscscccc"
       inkscape:connector-curvature="0"
       id="path6775"
       d="m 55.085701,260.90238 c -3.023029,-1.07959 -8.76484,-7.30008 -9.438761,-9.69211 -0.673919,-2.39203 0.04995,-9.7527 -0.321885,-12.4216 -0.37183,-2.6689 -1.632729,-11.8845 -1.632729,-11.8845 0,0 1.447664,0.54409 2.449429,3.04236 1.001766,2.49828 0.825747,7.51307 1.49055,8.81532 0.664806,1.30226 3.666908,3.02466 3.535977,4.89354 -0.130933,1.86887 -0.350587,6.23452 0.69964,10.40785 0.91645,2.18331 1.283992,4.78836 3.217779,6.83914 z"
       style="fill:#009d00;fill-opacity:0.99166667;stroke:none;stroke-width:0.26458332px;stroke-linecap:butt;stroke-linejoin:miter;stroke-opacity:1" />
    <path
       style="fill:#009d00;fill-opacity:0.99166667;stroke:none;stroke-width:0.26458332px;stroke-linecap:butt;stroke-linejoin:miter;stroke-opacity:1"
       d="m 53.116654,241.985 c 0.191987,-2.75182 2.239857,-8.51146 2.751825,-9.02343 0.511969,-0.51197 1.338945,-0.65808 2.23986,0.70395 3.690575,4.75915 4.362723,10.28078 2.879817,16.44697 -0.703956,2.68783 -1.983875,7.74351 -2.879817,9.4714 -3.903755,-4.6717 -5.183675,-14.84706 -4.991685,-17.59889 z"
       id="path6779"
       inkscape:connector-curvature="0"
       sodipodi:nodetypes="sscccs" />
    <path
       sodipodi:nodetypes="ccscscccc"
       inkscape:connector-curvature="0"
       id="path6781"
       d="m 60.275106,232.05704 c 2.943812,-1.27992 8.255479,-7.87151 8.767447,-10.30335 0.511966,-2.43185 -0.703955,-9.72739 -0.511968,-12.41522 0.191987,-2.68783 0.831947,-11.96725 0.831947,-11.96725 0,0 -1.407911,0.63996 -2.239859,3.1998 -0.831948,2.55984 -0.319979,7.55153 -0.895942,8.89544 -0.575964,1.34392 -3.455784,3.26379 -3.1998,5.11968 0.255985,1.85588 0.767953,6.19697 0,10.43134 -0.76795,2.23986 -0.95994,4.8637 -2.751825,7.03956 z"
       style="fill:#009d00;fill-opacity:0.99166667;stroke:none;stroke-width:0.26458332px;stroke-linecap:butt;stroke-linejoin:miter;stroke-opacity:1" />
    <path
       style="fill:#009d00;fill-opacity:0.99166667;stroke:none;stroke-width:0.26458332px;stroke-linecap:butt;stroke-linejoin:miter;stroke-opacity:1"
       d="m 54.180661,232.03161 c -3.023029,-1.07959 -8.76484,-7.30008 -9.438761,-9.69211 -0.673919,-2.39203 0.04995,-9.7527 -0.321885,-12.4216 -0.37183,-2.6689 -1.632729,-11.8845 -1.632729,-11.8845 0,0 1.447664,0.54409 2.449429,3.04236 1.001766,2.49828 0.825747,7.51307 1.49055,8.81532 0.664806,1.30226 3.666908,3.02466 3.535977,4.89354 -0.130933,1.86887 -0.350587,6.23452 0.69964,10.40785 0.91645,2.18331 1.283992,4.78836 3.217779,6.83914 z"
       id="path6783"
       inkscape:connector-curvature="0"
       sodipodi:nodetypes="ccscscccc" />
    <path
       sodipodi:nodetypes="sscccs"
       inkscape:connector-curvature="0"
       id="path6785"
       d="m 52.211614,213.11423 c 0.191987,-2.75182 2.239857,-8.51146 2.751825,-9.02343 0.511969,-0.51197 1.338945,-0.65808 2.23986,0.70395 3.690575,4.75915 4.362723,10.28078 2.879817,16.44697 -0.703956,2.68783 -1.983875,7.74351 -2.879817,9.4714 -3.903755,-4.6717 -5.183675,-14.84706 -4.991685,-17.59889 z"
       style="fill:#009d00;fill-opacity:0.99166667;stroke:none;stroke-width:0.26458332px;stroke-linecap:butt;stroke-linejoin:miter;stroke-opacity:1" />
    <path
       style="fill:#009d00;fill-opacity:0.99166667;stroke:none;stroke-width:0.26015478px;stroke-linecap:butt;stroke-linejoin:miter;stroke-opacity:1"
       d="m 59.093126,203.30988 c 2.982576,-1.14739 8.49874,-7.35566 9.086868,-9.69006 0.588126,-2.33442 -0.397955,-9.42123 -0.121606,-12.01272 0.276349,-2.59149 1.207569,-11.53901 1.207569,-11.53901 0,0 -1.427325,0.57565 -2.339297,3.02401 -0.911972,2.44838 -0.557104,7.28753 -1.17501,8.5687 -0.617908,1.28116 -3.556632,3.0489 -3.35909,4.85007 0.197543,1.80116 0.572853,6.01164 -0.327772,10.08009 -0.837951,2.14111 -1.112292,4.67076 -2.971662,6.71892 z"
       id="path6787"
       inkscape:connector-curvature="0"
       sodipodi:nodetypes="ccscscccc" />
    <path
       sodipodi:nodetypes="ccscscccc"
       inkscape:connector-curvature="0"
       id="path6789"
       d="m 53.002489,203.10016 c -2.987613,-1.13507 -8.53113,-7.32053 -9.129556,-9.65248 -0.598424,-2.33196 0.356373,-9.42279 0.06858,-12.01311 -0.287784,-2.59033 -1.258489,-11.53392 -1.258489,-11.53392 0,0 1.429852,0.56975 2.352623,3.01432 0.92277,2.4446 0.589264,7.28518 1.21282,8.56378 0.623558,1.27859 3.570057,3.0342 3.380467,4.83617 -0.189592,1.80196 -0.546314,6.01394 0.372261,10.07864 0.847393,2.13764 1.132898,4.66613 3.001291,6.7066 z"
       style="fill:#009d00;fill-opacity:0.99166667;stroke:none;stroke-width:0.26015478px;stroke-linecap:butt;stroke-linejoin:miter;stroke-opacity:1" />
    <path
       style="fill:#009d00;fill-opacity:0.99166667;stroke:none;stroke-width:0.26015478px;stroke-linecap:butt;stroke-linejoin:miter;stroke-opacity:1"
       d="m 51.628834,184.75996 c 0.278359,-2.65331 2.506196,-8.1568 3.033999,-8.63598 0.527803,-0.47917 1.358961,-0.59525 2.216634,0.74829 3.539211,4.71101 4.037528,10.06713 2.361601,15.98064 -0.788065,2.57594 -2.226211,7.4225 -3.176004,9.06498 -3.755034,-4.63297 -4.714593,-14.50459 -4.43623,-17.15793 z"
       id="path6791"
       inkscape:connector-curvature="0"
       sodipodi:nodetypes="sscccs" />
    <path
       sodipodi:nodetypes="ccscsccccc"
       inkscape:connector-curvature="0"
       id="path6793"
       d="m 58.369094,175.07264 c 2.982576,-1.14739 8.49874,-7.35566 9.086868,-9.69006 0.588126,-2.33442 -0.397955,-9.42123 -0.121606,-12.01272 0.276349,-2.59149 -0.421502,-46.02102 -0.421502,-46.02102 0,0 -2.489974,-2.77924 -2.416466,-0.89502 0.487009,12.48339 0.732466,39.98738 0.732466,39.98738 0,0 -0.717759,2.47693 -1.19678,3.63371 -0.617908,1.28116 -2.561088,6.39755 -2.363546,8.19872 0.197543,1.80116 0.572853,6.01164 -0.327772,10.08009 -0.837951,2.14111 -1.112292,4.67076 -2.971662,6.71892 z"
       style="fill:#009d00;fill-opacity:0.99166667;stroke:none;stroke-width:0.26015478px;stroke-linecap:butt;stroke-linejoin:miter;stroke-opacity:1" />
    <path
       style="fill:#009d00;fill-opacity:0.99166667;stroke:none;stroke-width:0.26015478px;stroke-linecap:butt;stroke-linejoin:miter;stroke-opacity:1"
       d="m 52.278457,174.86292 c -2.987613,-1.13507 -8.53113,-7.32053 -9.129556,-9.65248 -0.598424,-2.33196 -0.186651,-9.06077 -0.474444,-11.65109 -0.287784,-2.59033 -1.892017,-46.01594 -1.892017,-46.01594 l 2.366563,-0.58239 1.832408,41.57428 c 0,0 4.113081,7.74041 3.923491,9.54238 -0.189592,1.80196 -0.546314,6.01394 0.372261,10.07864 0.847393,2.13764 1.132898,4.66613 3.001291,6.7066 z"
       id="path6795"
       inkscape:connector-curvature="0"
       sodipodi:nodetypes="ccsccccccc" />
    <path
       sodipodi:nodetypes="sscccs"
       inkscape:connector-curvature="0"
       id="path6797"
       d="m 50.904802,156.52272 c 0.278359,-2.65331 2.506196,-8.1568 3.033999,-8.63598 0.527803,-0.47917 1.358961,-0.59525 2.216634,0.74829 3.539211,4.71101 4.037528,10.06713 2.361601,15.98064 -0.788065,2.57594 -2.226211,7.4225 -3.176004,9.06498 -3.755034,-4.63297 -4.714593,-14.50459 -4.43623,-17.15793 z"
       style="fill:#009d00;fill-opacity:0.99166667;stroke:none;stroke-width:0.26015478px;stroke-linecap:butt;stroke-linejoin:miter;stroke-opacity:1" />
    <path
       style="fill:#009d00;fill-opacity:0.99166667;stroke:none;stroke-width:0.26458332px;stroke-linecap:butt;stroke-linejoin:miter;stroke-opacity:1"
       d="m 57.724361,102.08981 2.623838,0.89595 1.151925,44.4772 -2.559837,0.064 z"
       id="path6799"
       inkscape:connector-curvature="0"
       sodipodi:nodetypes="ccccc" />
    <path
       sodipodi:nodetypes="ccccc"
       inkscape:connector-curvature="0"
       id="path6801"
       d="m 48.861181,102.53632 -2.576604,1.02389 1.036673,44.48004 2.559888,-0.0619 z"
       style="fill:#009d00;fill-opacity:0.99166667;stroke:none;stroke-width:0.26458332px;stroke-linecap:butt;stroke-linejoin:miter;stroke-opacity:1" />
    <path
       sodipodi:nodetypes="ccccc"
       inkscape:connector-curvature="0"
       id="path6803"
       d="m 52.412696,101.44985 2.75183,-0.12799 1.023933,45.50114 -2.559837,0.064 z"
       style="fill:#009d00;fill-opacity:0.99166667;stroke:none;stroke-width:0.26458332px;stroke-linecap:butt;stroke-linejoin:miter;stroke-opacity:1" />
    <path
       style="fill:#009e00;fill-opacity:0.99607843;stroke:none;stroke-width:0.26458332px;stroke-linecap:butt;stroke-linejoin:miter;stroke-opacity:1"
       d="m 70.095321,253.87367 c -2.2626,5.24923 -5.475489,8.95989 -8.552625,10.13644 -3.077135,1.17655 -5.294481,3.80116 -5.294481,3.80116 0,0 13.982861,2.53413 14.118619,2.3531 0.135755,-0.181 -0.271513,-16.2907 -0.271513,-16.2907 z"
       id="path6809"
       inkscape:connector-curvature="0" />
  </g>
  <g
     inkscape:groupmode="layer"
     id="layer8"
     inkscape:label="banner"
     style="display:inline"
     transform="translate(-18.098907,-4.2295328)">
    <path
       style="fill:#d40000;fill-opacity:1;stroke:#ffffff;stroke-width:1.5;stroke-linecap:butt;stroke-linejoin:miter;stroke-opacity:1"
       d="m 173.13404,282.47292 c 0,0 17.82932,-6.06377 29.59484,-12.03703 11.76551,-5.97326 31.04286,-21.53994 31.04286,-21.53994 l -7.14981,24.7981 11.58451,5.79225 c 0,0 -14.57114,10.86046 -21.72095,14.75214 -15.7477,9.50292 -27.11464,10.35981 -27.11464,10.35981"
       id="path6676"
       inkscape:connector-curvature="0"
       sodipodi:nodetypes="csccccc" />
    <path
       sodipodi:nodetypes="csccccc"
       inkscape:connector-curvature="0"
       id="path6682"
       d="m 103.53978,282.47292 c 0,0 -17.829317,-6.06377 -29.594831,-12.03703 -11.765504,-5.97326 -31.042842,-21.53994 -31.042842,-21.53994 l 7.149804,24.7981 -11.584504,5.79225 c 0,0 14.571134,10.86046 21.720938,14.75214 15.747691,9.50292 27.114625,10.35981 27.114625,10.35981"
       style="fill:#d40000;stroke:#ffffff;stroke-width:1.5;stroke-linecap:butt;stroke-linejoin:miter;stroke-opacity:1" />
    <path
       style="fill:#aa0000;fill-opacity:1;stroke:#ffffff;stroke-width:1.5;stroke-linecap:butt;stroke-linejoin:miter;stroke-opacity:1"
       d="m 174.4191,292.03054 -1.28506,-9.55762 c 5.69862,1.35155 8.84664,3.26991 11.313,5.33974"
       id="path6674"
       inkscape:connector-curvature="0"
       sodipodi:nodetypes="ccc" />
    <path
       sodipodi:nodetypes="csc"
       inkscape:connector-curvature="0"
       id="path6680"
       d="m 102.25472,292.03054 c 0,0 3.2406,-10.25044 1.52858,-9.89851 -5.469008,1.12425 -8.660332,2.77998 -11.313035,5.33974"
       style="fill:#aa0000;stroke:#ffffff;stroke-width:1.5;stroke-linecap:butt;stroke-linejoin:miter;stroke-opacity:1" />
    <path
       sodipodi:nodetypes="czccczczc"
       inkscape:connector-curvature="0"
       id="path6678"
       d="m 84.262393,314.96386 c -2.759821,-3.78464 5.479933,-23.12543 7.964344,-27.1512 2.484411,-4.02577 8.416873,4.79671 20.453903,6.78778 12.03702,1.9911 25.65627,1.71958 25.65627,1.71958 0,0 13.61925,0.27152 25.65627,-1.71958 12.03703,-1.99107 19.02295,-9.14889 20.4539,-6.78778 1.43095,2.36111 8.52901,22.80912 7.96435,27.1512 -20.16435,8.67712 -38.88619,10.54463 -54.18013,11.13572 -15.29394,0.5911 -41.168992,-4.14036 -53.968907,-11.13572 z"
       style="fill:#d40000;stroke:#ffffff;stroke-width:1.5;stroke-linecap:butt;stroke-linejoin:miter;stroke-opacity:1" />
  </g>
  <g
     inkscape:groupmode="layer"
     id="layer5"
     inkscape:label="texte"
     style="display:inline"
     transform="translate(-1499.1517,-369.00521)">
    <flowRoot
       xml:space="preserve"
       id="flowRoot5199"
       style="font-size:22.5px;line-height:100%;font-family:'Noto Mono';-inkscape-font-specification:'Noto Mono, Normal';text-align:end;letter-spacing:0px;word-spacing:0px;writing-mode:lr-tb;text-anchor:end;fill:none;stroke:#000000;stroke-width:1px;stroke-linecap:butt;stroke-linejoin:miter;stroke-opacity:1"
       transform="matrix(0.26458333,0,0,0.26458333,56.158372,11.4482)"><flowRegion
         id="flowRegion5201"><rect
           id="rect5203"
           width="419.89417"
           height="313.46939"
           x="-388.93423"
           y="179.29044" /></flowRegion><flowPara
         id="flowPara5205" /></flowRoot>    <path
       style="fill:#ffffff;fill-opacity:1;stroke:none;stroke-width:0.26458332px;stroke-linecap:butt;stroke-linejoin:miter;stroke-opacity:1"
       d="m 1696.769,641.32058 c -0.362,0.27152 -1.7196,1.58383 -2.1268,1.35758 -0.4073,-0.22627 -1.2434,-1.03642 -0.6788,-4.16319 0.5883,-3.25815 2.3078,-2.98664 2.5793,-2.98664 0.2716,0 2.8336,1.172 3.1503,5.78771 0.3168,4.61571 -2.2905,7.33538 -2.924,7.7879 -0.6335,0.45251 -3.7106,2.35309 -3.5749,0.36202 0.1358,-1.99109 0.4073,-2.80563 1.086,-3.52967 0.6788,-0.72403 2.7604,-1.81006 2.8962,-2.85088 0.1357,-1.04079 -0.4073,-1.76483 -0.4073,-1.76483 z"
       id="path6684"
       inkscape:connector-curvature="0"
       sodipodi:nodetypes="ccsscccccc" />
    <path
       style="fill:#ffffff;stroke:none;stroke-width:0.26458332px;stroke-linecap:butt;stroke-linejoin:miter;stroke-opacity:1"
       d="m 1688.5331,646.79608 c -0.3219,0.55807 -1.3674,1.29084 -1.5664,0.25504 -0.3812,-1.02466 -0.8869,-2.15249 -0.5587,-3.25661 1.0297,-2.07057 2.4469,-1.54722 3.9268,-0.57877 2.2616,1.86082 2.1228,5.61995 0.9865,7.73164 -0.7918,1.30624 -1.9206,2.471 -3.3209,3.11374 -0.6069,0.27092 -1.3884,0.24498 -1.8561,-0.27514 -1.4458,-1.28984 -2.416,-3.0051 -3.3551,-4.67459 -1.1262,-2.44885 -2.0376,-5.40186 -1.7759,-7.88061 0.1541,-0.6732 0.4654,-2.11184 1.3992,-1.76788 0.5776,0.55918 0.6885,1.41739 0.9412,2.14877 0.6912,2.4002 1.0179,4.91293 1.9864,7.22761 0.2629,0.69595 1.0741,1.27014 1.7926,0.84777 0.6751,-0.33206 1.2569,-0.9382 1.4905,-1.65592 0.084,-0.40895 0.022,-0.84312 -0.09,-1.23505 z"
       id="path6686"
       inkscape:connector-curvature="0"
       sodipodi:nodetypes="cccccccccccccccc" />
    <path
       style="fill:#ffffff;fill-opacity:1;stroke:none;stroke-width:0.26458332px;stroke-linecap:butt;stroke-linejoin:miter;stroke-opacity:1"
       d="m 1685.4108,638.877 c 0,0 -0.6788,1.08603 0.1357,1.67431 0.8145,0.58827 4.0274,-1.04079 4.1632,-1.58382 0.1357,-0.54303 0.7693,-2.08159 0.2263,-1.9911 -0.5431,0.0905 -4.2085,0.9503 -4.5252,1.90061 z"
       id="path6688"
       inkscape:connector-curvature="0" />
    <path
       style="fill:#ffffff;stroke:none;stroke-width:0.26458332px;stroke-linecap:butt;stroke-linejoin:miter;stroke-opacity:1"
       d="m 1680.7045,649.2397 c -0.181,2.08158 -1.1765,3.75591 -1.9005,4.0274 -0.7241,0.27152 -1.2218,0.0453 -1.7649,0.13576 -0.543,0.0905 -1.7195,0.85979 -2.1268,2.57937 -0.4073,1.71958 -0.2263,4.16319 0.3168,4.57047 0.543,0.40724 1.4933,-0.85979 1.5838,-1.6291 0.091,-0.76927 1.3123,-2.08158 1.5838,-2.21734 0.2715,-0.13575 2.5341,-0.31676 3.1224,-1.44806 1.2896,-1.04365 1.2902,-3.7304 0.6788,-4.8872 -0.4073,-1.1313 -1.5839,-1.58382 -1.4934,-1.1313 z"
       id="path6690"
       inkscape:connector-curvature="0"
       sodipodi:nodetypes="cccscccccc" />
    <path
       style="fill:#ffffff;stroke:none;stroke-width:0.26458332px;stroke-linecap:butt;stroke-linejoin:miter;stroke-opacity:1"
       d="m 1675.4553,646.16256 c -0.5198,0.80688 -0.6245,1.53073 -0.543,2.21735 0.4962,0.77686 1.1583,0.72468 1.7648,0.95027 0.7728,-0.59827 0.7721,-1.48658 0.5883,-2.44358 -0.461,-0.49051 -0.8822,-1.05065 -1.8101,-0.72404 z"
       id="path6696"
       inkscape:connector-curvature="0"
       sodipodi:nodetypes="ccccc" />
    <path
       sodipodi:nodetypes="ccccc"
       inkscape:connector-curvature="0"
       id="path6698"
       d="m 1671.8351,648.47041 c -0.5198,0.80688 -0.6245,1.53073 -0.543,2.21735 0.4962,0.77686 1.1583,0.72468 1.7648,0.95027 0.7728,-0.59827 0.7721,-1.48658 0.5883,-2.44358 -0.461,-0.49051 -0.8822,-1.05065 -1.8101,-0.72404 z"
       style="fill:#ffffff;stroke:none;stroke-width:0.26458332px;stroke-linecap:butt;stroke-linejoin:miter;stroke-opacity:1" />
    <path
       style="fill:#ffffff;stroke:none;stroke-width:0.26458332px;stroke-linecap:butt;stroke-linejoin:miter;stroke-opacity:1"
       d="m 1681.1118,658.24484 c -0.5198,0.80688 -0.6245,1.53073 -0.543,2.21735 0.4962,0.77686 1.1583,0.72468 1.7648,0.95027 0.7728,-0.59827 0.7721,-1.48658 0.5883,-2.44358 -0.461,-0.49051 -0.8822,-1.05065 -1.8101,-0.72404 z"
       id="path6700"
       inkscape:connector-curvature="0"
       sodipodi:nodetypes="ccccc" />
    <path
       sodipodi:nodetypes="ccccc"
       inkscape:connector-curvature="0"
       id="path6702"
       d="m 1684.0079,655.48447 c -0.5198,0.80688 -0.6245,1.53073 -0.543,2.21735 0.4962,0.77686 1.1583,0.72468 1.7648,0.95027 0.7728,-0.59827 0.7721,-1.48658 0.5883,-2.44358 -0.461,-0.49051 -0.8822,-1.05065 -1.8101,-0.72404 z"
       style="fill:#ffffff;stroke:none;stroke-width:0.26458332px;stroke-linecap:butt;stroke-linejoin:miter;stroke-opacity:1" />
    <path
       style="fill:#ffffff;stroke:none;stroke-width:0.26458332px;stroke-linecap:butt;stroke-linejoin:miter;stroke-opacity:1"
       d="m 1646.9918,666.48069 c -0.543,1.44806 -3.4715,2.53358 -5.7017,3.52965 -0.743,0.53444 -3.3765,2.8578 -1.4934,3.52967 0.3168,0.0905 2.6247,0.22625 2.6247,0.22625 -12.0271,7.38605 -23.1373,9.05868 -34.9967,4.2376 -2.0486,-1.18538 -2.3273,-3.73298 -4.4608,-5.08508 -0.4525,0.22627 -0.2463,2.16395 -0.02,3.65726 0.1624,1.8105 -2.7968,2.94024 -3.6931,3.16349 -1.8553,0.40727 -3.3939,0.81453 -3.3487,1.26706 0.025,0.25234 -0.4809,1.75742 0.085,2.40898 3.7093,1.14783 6.0955,0.37422 7.9249,-3.5403 0,0 6.0638,3.25816 11.1773,4.3442 11.033,1.43804 22.4902,-2.5341 31.4048,-10.31746 0.5885,-1.53856 1.2673,-1.76482 0.2265,-1.85532 -1.0408,-0.0905 -3.4844,-0.13576 -3.4844,-0.13576 0,0 -0.09,-0.85979 1.7648,-1.49331 1.8554,-0.63353 1.9911,-3.93693 1.9911,-3.93693 z"
       id="path6706"
       inkscape:connector-curvature="0"
       sodipodi:nodetypes="cccccccccccccscccc" />
    <path
       style="fill:#ffffff;stroke:none;stroke-width:0.26458332px;stroke-linecap:butt;stroke-linejoin:miter;stroke-opacity:1"
       d="m 1645.4198,661.34706 c -0.5198,0.80688 -0.6245,1.53073 -0.543,2.21735 0.4962,0.77686 1.1583,0.72468 1.7648,0.95027 0.7728,-0.59827 0.7721,-1.48658 0.5883,-2.44358 -0.461,-0.49051 -0.8822,-1.05065 -1.8101,-0.72404 z"
       id="path6708"
       inkscape:connector-curvature="0"
       sodipodi:nodetypes="ccccc" />
    <path
       sodipodi:nodetypes="ccccc"
       inkscape:connector-curvature="0"
       id="path6710"
       d="m 1642.5437,679.21181 c -0.5198,0.80688 -0.6245,1.53073 -0.543,2.21735 0.4962,0.77686 1.1583,0.72468 1.7648,0.95027 0.7728,-0.59827 0.7721,-1.48658 0.5883,-2.44358 -0.461,-0.49051 -0.8822,-1.05065 -1.8101,-0.72404 z"
       style="fill:#ffffff;stroke:none;stroke-width:0.26458332px;stroke-linecap:butt;stroke-linejoin:miter;stroke-opacity:1" />
    <path
       style="fill:#ffffff;stroke:none;stroke-width:0.99999994px;stroke-linecap:butt;stroke-linejoin:miter;stroke-opacity:1"
       d="m 433.90625,1150.1445 c -5.39551,0.012 -12.40268,2.9775 -14.85937,4.7461 -3.02325,2.1769 -6.65117,6.4099 -11.73047,18.2617 9.07048,17.6569 19.47211,8.1029 27.9375,0 8.46576,-8.1027 8.10156,-18.0195 8.10156,-18.0195 0,0 -0.72568,-2.5396 -6.04688,-4.4746 -0.99772,-0.3628 -2.15722,-0.5165 -3.40234,-0.5137 z m -4.2168,11.2774 c 0,0 3.99086,4.9575 -4.71679,8.3437 -8.70728,3.3863 -10.15821,-0.6035 -10.15821,-0.6035 5.68403,-7.8609 14.875,-7.7402 14.875,-7.7402 z"
       transform="matrix(0.26458333,0,0,0.26458333,1481.0528,364.77568)"
       id="path6712"
       inkscape:connector-curvature="0" />
    <path
       style="fill:#ffffff;stroke:none;stroke-width:0.26458332px;stroke-linecap:butt;stroke-linejoin:miter;stroke-opacity:1"
       d="m 1590.7754,664.73118 c -0.5198,0.80688 -0.6245,1.53073 -0.543,2.21735 0.4962,0.77686 1.1583,0.72468 1.7648,0.95027 0.7728,-0.59827 0.7721,-1.48658 0.5883,-2.44358 -0.461,-0.49051 -0.8822,-1.05065 -1.8101,-0.72404 z"
       id="path6717"
       inkscape:connector-curvature="0"
       sodipodi:nodetypes="ccccc" />
    <path
       sodipodi:nodetypes="ccccc"
       inkscape:connector-curvature="0"
       id="path6719"
       d="m 1594.1869,664.29621 c -0.5198,0.80688 -0.6245,1.53073 -0.543,2.21735 0.4962,0.77686 1.1583,0.72468 1.7648,0.95027 0.7728,-0.59827 0.7721,-1.48658 0.5883,-2.44358 -0.461,-0.49051 -0.8822,-1.05065 -1.8101,-0.72404 z"
       style="fill:#ffffff;stroke:none;stroke-width:0.26458332px;stroke-linecap:butt;stroke-linejoin:miter;stroke-opacity:1" />
    <path
       style="fill:#ffffff;stroke:none;stroke-width:0.26458332px;stroke-linecap:butt;stroke-linejoin:miter;stroke-opacity:1"
       d="m 1568.5875,649.38764 c 0,0 -0.7679,-0.31996 -2.0478,0.76796 -1.28,1.08794 -6.2716,9.40741 -6.2716,9.40741 0,0 2.2398,0.19199 3.3277,-0.76795 1.088,-0.95993 5.2477,-4.47971 4.9917,-9.40742 z"
       id="path6721"
       inkscape:connector-curvature="0" />
    <path
       style="fill:#ffffff;stroke:none;stroke-width:0.26458332px;stroke-linecap:butt;stroke-linejoin:miter;stroke-opacity:1"
       d="m 1553.2925,640.49224 c -3.5049,4.08924 -6.8294,9.85544 -5.7599,13.6312 1.216,4.03175 5.0561,1.85571 5.0561,1.85571 0,0 1.1519,1.27987 3.5837,0.7679 5.6949,-1.56533 5.9696,-4.57586 5.7594,-7.23159 -2.5599,-0.70398 -2.2399,2.94391 -2.3679,3.26387 -0.128,0.31996 -2.1115,0.96015 -2.1115,0.96015 0,0 0.6398,-2.6879 0.2558,-3.26387 -0.384,-0.57595 -1.7278,-1.15171 -2.7517,-0.63977 -1.304,0.94271 -3.3799,1.87696 -3.328,3.71142 0,0 -0.3216,0.21564 -1.0237,-1.15186 -1.131,-2.20279 2.716,-8.48596 2.8799,-8.38348 z m 1.865,11.55486 c 0.1359,-3.2e-4 0.2827,0.0265 0.4387,0.0925 0.832,0.35195 0.8961,1.31154 0.8961,1.31154 0,0 -0.512,0.64 -1.5999,0.44804 -1.0879,-0.19198 -0.7038,-1.3436 -0.7038,-1.3436 0,0 0.3801,-0.50718 0.9689,-0.50848 z"
       id="path6723"
       inkscape:connector-curvature="0" />
    <path
       sodipodi:nodetypes="ccccc"
       inkscape:connector-curvature="0"
       id="path6728"
       d="m 1562.8917,645.41071 c -0.5198,0.80688 -0.6245,1.53073 -0.543,2.21735 0.4962,0.77686 1.1583,0.72468 1.7648,0.95027 0.7728,-0.59827 0.7721,-1.48658 0.5883,-2.44358 -0.461,-0.49051 -0.8822,-1.05065 -1.8101,-0.72404 z"
       style="fill:#ffffff;stroke:none;stroke-width:0.26458332px;stroke-linecap:butt;stroke-linejoin:miter;stroke-opacity:1" />
    <path
       style="fill:#ffffff;stroke:none;stroke-width:0.26458332px;stroke-linecap:butt;stroke-linejoin:miter;stroke-opacity:1"
       d="m 1557.724,641.36297 c -0.5198,0.80688 -0.6245,1.53073 -0.543,2.21735 0.4962,0.77686 1.1583,0.72468 1.7648,0.95027 0.7728,-0.59827 0.7721,-1.48658 0.5883,-2.44358 -0.461,-0.49051 -0.8822,-1.05065 -1.8101,-0.72404 z"
       id="path6730"
       inkscape:connector-curvature="0"
       sodipodi:nodetypes="ccccc" />
    <path
       sodipodi:nodetypes="ccccc"
       inkscape:connector-curvature="0"
       id="path6732"
       d="m 1556.6361,645.17073 c -0.5198,0.80688 -0.6245,1.53073 -0.543,2.21735 0.4962,0.77686 1.1583,0.72468 1.7648,0.95027 0.7728,-0.59827 0.7721,-1.48658 0.5883,-2.44358 -0.461,-0.49051 -0.8822,-1.05065 -1.8101,-0.72404 z"
       style="fill:#ffffff;stroke:none;stroke-width:0.26458332px;stroke-linecap:butt;stroke-linejoin:miter;stroke-opacity:1" />
    <path
       style="fill:#ffffff;stroke:none;stroke-width:0.26458332px;stroke-linecap:butt;stroke-linejoin:miter;stroke-opacity:1"
       d="m 1545.3088,636.33929 c -0.5198,0.80688 -0.6245,1.53073 -0.543,2.21735 0.4962,0.77686 1.1583,0.72468 1.7648,0.95027 0.7728,-0.59827 0.7721,-1.48658 0.5883,-2.44358 -0.461,-0.49051 -0.8822,-1.05065 -1.8101,-0.72404 z"
       id="path6734"
       inkscape:connector-curvature="0"
       sodipodi:nodetypes="ccccc" />
    <path
       style="fill:#ffffff;stroke:none;stroke-width:0.26458332px;stroke-linecap:butt;stroke-linejoin:miter;stroke-opacity:1"
       d="m 1542.5955,644.0357 c 0,0 1.4481,-1.76482 1.9911,-1.99106 0.543,-0.22628 1.1765,0.181 1.1765,0.181 0,0 1.6291,1.90058 1.1313,5.33974 -0.4977,3.43913 -4.7062,3.52965 -6.4257,3.80116 -1.7196,0.27152 -5.2493,-0.90503 -5.2493,-0.90503 0,0 -0.2262,-0.0453 -0.091,-0.54303 0.1358,-0.49779 1.8101,-2.53413 2.4889,-2.66989 0.6788,-0.13573 2.8056,0.31679 3.3486,0.45255 0.5431,0.13575 2.7604,-0.13576 2.7604,-0.13576 0,0 -0.2263,-1.49334 -0.9503,-2.1721 -0.724,-0.67879 -0.181,-1.35758 -0.181,-1.35758 z"
       id="path6736"
       inkscape:connector-curvature="0" />
    <path
       style="fill:#000000;stroke:none;stroke-width:0.26458332px;stroke-linecap:butt;stroke-linejoin:miter;stroke-opacity:1"
       d="m 1710.9253,444.70073 -2.0363,1.62907 c 0,0 -0.7693,6.51629 -1.2218,8.68838 -0.4526,2.1721 -2.6246,6.69729 -2.6246,6.69729 0,0 2.5341,-0.0905 3.6654,-1.94583 1.1313,-1.85533 1.0408,-4.66096 1.5385,-6.19952 0.4978,-1.53857 1.2671,-4.11793 1.2671,-4.11793 l 0.8145,1.99108 -0.362,-5.79225 z"
       id="path6811"
       inkscape:connector-curvature="0" />
    <path
       style="fill:#000000;stroke:none;stroke-width:0.26458332px;stroke-linecap:butt;stroke-linejoin:miter;stroke-opacity:1"
       d="m 1705.0426,442.57388 1.1765,1.22181 -0.3168,5.79225 -0.8597,-2.4436 c 0,0 -0.8146,1.49331 -0.8598,2.98663 -0.045,1.49331 0.3167,5.06822 -0.5883,6.92355 -0.9051,1.85533 -4.661,3.80117 -5.5208,3.89167 -0.8597,0.0905 -5.5207,-1.49332 -5.7922,-2.71512 -0.2715,-1.2218 -0.905,-2.44361 0,-3.4844 0.905,-1.0408 2.3983,-1.71958 2.3983,-1.71958 0,0 -1.1765,1.40282 -0.045,2.71512 1.1313,1.31231 2.0816,1.76483 3.2129,1.71958 1.1313,-0.0453 2.8961,-0.67878 2.8961,-0.67878 0,0 0.2715,-4.57045 0.7693,-6.51629 0.4978,-1.94583 1.8101,-6.69729 1.8101,-6.69729 z"
       id="path6813"
       inkscape:connector-curvature="0" />
    <path
       style="fill:#000000;stroke:none;stroke-width:0.26458332px;stroke-linecap:butt;stroke-linejoin:miter;stroke-opacity:1"
       d="m 1679.9945,434.06499 c -0.085,-0.004 -0.1684,-0.004 -0.2475,0.002 -0.6335,0.0453 -1.6294,1.35754 -1.6294,1.35754 0,0 -2e-4,2.76025 -0.1359,4.47983 -0.1358,1.71957 -1.8099,6.42574 -2.4887,8.37158 -0.6788,1.94583 -0.5885,4.25407 1.8551,5.83789 2.4436,1.58382 4.5708,-0.76946 4.5708,-0.76946 0,0 0.045,0.22637 0.2713,0.85989 0.2263,0.63353 1.4031,1.22161 2.2629,2.2624 0.8598,1.0408 3.1223,-0.18104 3.8463,-0.95033 0.724,-0.76928 1.1767,-3.84628 1.1767,-3.84628 0,0 1.131,-0.22634 2.76,-0.22634 1.6291,0 5.2948,2.17196 5.2948,2.17196 l 2.036,-2.85047 c 0,0 -1.855,-0.9051 -2.5337,-1.26711 -0.6788,-0.36202 -1.7649,-1.94613 -3.8917,-3.62045 -2.1269,-1.67432 -5.0683,-2.80552 -5.5661,-3.12229 -0.4978,-0.31676 -1.2671,0.22635 -1.9911,0.54312 -0.724,0.31676 -1.3577,1.62888 -1.5838,2.57917 0,0 0.4979,1.31245 1.1766,1.49345 0.6788,0.18101 1.6289,-0.72399 2.5792,-0.72399 0.9503,0 1.6743,1.1312 1.6743,1.1312 l -1.4934,0.76946 c 0,0 -3.7104,-0.0907 -4.4344,0.2713 -0.724,0.36202 -1.2673,1.67457 -2.2629,2.35335 -0.9955,0.67878 -3.439,-0.67897 -3.484,-1.08624 -0.045,-0.40726 2.0815,-4.25376 3.1223,-7.55716 1.0408,-3.30339 0.4072,-8.19072 0.4072,-8.19072 0,0 -0.6933,-0.24256 -1.2909,-0.27285 z m 4.6881,16.69872 c 0.35,0.006 1.1388,0.0573 1.8515,0.36277 0.9503,0.40727 0.4073,2.71508 0.4073,2.71508 0,0 -1.7197,-0.0905 -2.5343,-0.72399 -0.814,-0.63346 -1.0404,-1.53835 0.091,-2.35282 4e-4,-2e-5 0.069,-0.003 0.185,-10e-4 z"
       id="path6815"
       inkscape:connector-curvature="0" />
    <path
       style="fill:#000000;stroke:none;stroke-width:0.26458332px;stroke-linecap:butt;stroke-linejoin:miter;stroke-opacity:1"
       d="m 1673.4114,440.71855 -2.2173,1.49332 c 0,0 0.8145,2.2626 0.045,3.3939 -0.7693,1.1313 -2.2173,1.67432 -3.1224,0.63353 -0.905,-1.0408 -1.6743,-3.34865 -1.4933,-4.88722 0.181,-1.53856 0.7693,-3.93692 0.7693,-3.93692 0,0 -1.6743,-0.58828 -2.7151,-0.0905 -1.0408,0.49777 -2.5794,6.74254 -5.566,6.78779 -2.9866,0.0452 -2.2174,-4.88721 -2.2174,-4.88721 -3.8127,2.43 -2.5927,7.55033 0.6335,7.96434 5.0228,0.1853 5.4922,-1.79027 7.3761,-5.74699 0,0 -0.8597,5.97326 0.9503,7.91909 1.8101,1.94584 4.8872,2.2626 6.0185,1.1313 1.1313,-1.1313 2.1721,-3.66541 2.1269,-5.20398 -0.045,-1.53856 -0.5883,-4.57045 -0.5883,-4.57045 z"
       id="path6819"
       inkscape:connector-curvature="0"
       sodipodi:nodetypes="ccccscccccccsccc" />
    <path
       style="fill:#000000;stroke:none;stroke-width:0.26458332px;stroke-linecap:butt;stroke-linejoin:miter;stroke-opacity:1"
       d="m 1682.2167,459.31397 c 0,0 6.1436,-2.04787 7.4876,-1.15193 1.3439,0.89595 -4.9277,2.11187 -7.4876,1.15193 z"
       id="path6821"
       inkscape:connector-curvature="0" />
    <path
       style="fill:#000000;stroke:none;stroke-width:0.26458332px;stroke-linecap:butt;stroke-linejoin:miter;stroke-opacity:1"
       d="m 1669.9935,452.91437 -1.7599,1.40792 1.5999,2.49584 2.5278,-1.82389 z"
       id="path6824"
       inkscape:connector-curvature="0" />
    <path
       style="fill:#000000;stroke:none;stroke-width:0.26458332px;stroke-linecap:butt;stroke-linejoin:miter;stroke-opacity:1"
       d="m 1665.1298,452.33841 c -0.224,0.096 -2.3678,1.75989 -2.3678,1.75989 l 2.2718,2.01587 2.1439,-2.01587 z"
       id="path6826"
       inkscape:connector-curvature="0" />
    <path
       style="fill:#000000;stroke:none;stroke-width:0.26458332px;stroke-linecap:butt;stroke-linejoin:miter;stroke-opacity:1"
       d="m 1661.322,431.73171 2.8479,-0.73595 0.6399,2.30385 -2.7518,1.02394 z"
       id="path6828"
       inkscape:connector-curvature="0" />
    <path
       style="fill:#000000;stroke:none;stroke-width:0.26458332px;stroke-linecap:butt;stroke-linejoin:miter;stroke-opacity:1"
       d="m 1665.762,433.08205 0.6797,2.61741 3.1998,-0.89594 -1.3759,-2.65584 z"
       id="path6830"
       inkscape:connector-curvature="0"
       sodipodi:nodetypes="ccccc" />
    <path
       style="fill:#000000;stroke:none;stroke-width:0.26458332px;stroke-linecap:butt;stroke-linejoin:miter;stroke-opacity:1"
       d="m 1683.2407,439.7632 c 0.2239,-0.096 2.5278,-1.69589 3.5837,-1.88788 1.056,-0.19199 3.4238,-0.38397 3.0078,-0.064 -0.4159,0.31998 -5.4716,2.01587 -6.5915,1.95187 z"
       id="path6832"
       inkscape:connector-curvature="0" />
    <path
       style="fill:#000000;stroke:none;stroke-width:0.26458332px;stroke-linecap:butt;stroke-linejoin:miter;stroke-opacity:1"
       d="m 1569.6562,428.41001 -0.2715,2.39836 c 0,0 7.1951,10.31745 7.9191,11.58451 0.724,1.26705 0.9503,4.47994 0.9503,4.47994 0,0 2.0363,-2.57936 1.6291,-4.6157 -0.4073,-2.03634 -6.4258,-10.81522 -6.4258,-10.81522 l 2.0816,0.63352 -4.842,-3.98217 z"
       id="path6834"
       inkscape:connector-curvature="0" />
    <path
       style="fill:#000000;stroke:none;stroke-width:0.26458332px;stroke-linecap:butt;stroke-linejoin:miter;stroke-opacity:1"
       d="m 1561.5561,431.93967 -0.905,2.66987 1.4028,0.90503 c 0,0 2.1268,3.43915 3.5297,5.38499 1.4028,1.94584 2.5793,3.4844 3.2581,3.75592 0.6788,0.27151 -0.4073,0.72403 -1.5838,1.76482 -1.1766,1.0408 -1.6291,2.44361 -3.3487,-0.67878 -1.7195,-3.12238 -3.9821,-6.7878 -5.7017,-7.24032 -1.7196,-0.45251 -1.4028,2.66987 -1.4028,2.66987 0,0 3.4844,2.89613 4.7062,4.6157 1.2218,1.71958 -0.5883,5.20398 -1.5386,6.33528 -0.9503,1.1313 -2.8509,1.90059 -3.3034,1.62907 -0.4525,-0.27151 -1.5838,-1.62907 -1.5838,-1.62907 0,0 -0.7693,1.49332 -0.362,2.66987 0.4072,1.17655 1.0408,2.48886 3.6201,1.71958 2.5794,-0.76929 3.4392,-2.94138 3.9822,-4.07268 0.543,-1.1313 0.9503,-4.25369 0.9503,-4.25369 0,0 0.4525,2.08159 1.1313,2.71512 0.6788,0.63353 2.8509,1.71957 4.2537,-0.27151 1.4028,-1.99109 1.8101,-4.07268 1.8101,-4.07268 0,0 1.81,0.58827 2.8056,0.18101 0.9955,-0.40727 2.7151,-1.76483 1.9006,-2.76037 -0.8146,-0.99555 -2.5341,-1.94584 -2.8056,-1.62908 -0.2716,0.31677 -1.0861,0.9503 -1.7649,0.36202 -0.6788,-0.58828 -5.566,-7.73809 -5.566,-7.73809 h 2.0364 z"
       id="path6836"
       inkscape:connector-curvature="0" />
    <path
       style="fill:#000000;stroke:none;stroke-width:0.26458332px;stroke-linecap:butt;stroke-linejoin:miter;stroke-opacity:1"
       d="m 1551.2387,442.89065 c 0,0 -1.4933,0.85978 -0.8146,2.03634 0.6788,1.17655 2.2626,2.03634 2.3079,2.76037 0.045,0.72403 -0.4525,1.81008 -1.2671,1.85533 -0.8145,0.0453 -2.5793,0.81454 -3.5296,-1.31231 -0.9503,-2.12684 -0.5883,2.3531 -0.9503,3.57491 -0.362,1.2218 -2.2626,2.62461 -3.0319,2.71512 -0.7693,0.0905 -3.8012,-0.63353 -4.8872,-2.03634 -1.0861,-1.40281 -2.0363,-4.02743 -2.0363,-4.02743 0,0 -1.9459,0.36202 -2.1721,1.71958 -0.2263,1.35756 0.362,5.06822 -0.1358,6.47103 -0.4978,1.40281 -1.7196,2.39836 -2.5794,1.99109 -0.8598,-0.40727 -2.3531,-3.93693 -2.3531,-3.93693 0,0 -0.362,4.07268 1.2671,5.70175 1.6291,1.62908 2.8961,1.81008 4.2537,0.99555 1.3575,-0.81454 0.9955,-5.38499 1.086,-7.24032 0.091,-1.85533 0.9051,-1.58382 0.9051,-1.58382 0,0 2.1721,4.07268 4.7062,4.88722 2.5341,0.81453 4.8419,-0.54303 5.9732,-2.21735 1.1313,-1.67432 0.4978,-3.57491 0.8598,-3.34865 0.362,0.22626 0.181,1.08605 1.5386,1.67433 1.3575,0.58827 3.4844,-1.49332 3.8012,-2.12685 0.3167,-0.63352 0.6335,-4.20843 0.3167,-5.06822 -0.3167,-0.85979 -3.2581,-3.4844 -3.2581,-3.4844 z"
       id="path6838"
       inkscape:connector-curvature="0" />
    <path
       style="fill:#000000;stroke:none;stroke-width:0.26458332px;stroke-linecap:butt;stroke-linejoin:miter;stroke-opacity:1"
       d="m 1545.2654,442.75489 c 0,1.1313 -0.4978,2.12684 -0.9955,2.03634 -0.4978,-0.0905 -1.3123,-1.31231 -1.3123,-1.31231 0,0 0.6335,2.0816 -0.091,2.71512 -0.7241,0.63353 -2.3984,1.1313 -2.4889,-0.0453 -0.091,-1.17655 -1.1766,1.31231 -0.1358,2.12684 1.0408,0.81454 2.1721,1.53857 3.4392,0.49778 1.267,-1.0408 0.543,-2.66987 0.543,-2.66987 0,0 1.1313,1.04079 1.8101,0.36201 0.6788,-0.67878 0.362,-2.57936 -0.7693,-3.71066 z"
       id="path6840"
       inkscape:connector-curvature="0" />
    <path
       style="fill:#000000;stroke:none;stroke-width:0.26458332px;stroke-linecap:butt;stroke-linejoin:miter;stroke-opacity:1"
       d="m 1537.6178,444.02195 c 0.4525,-0.27152 5.023,-5.83751 5.6565,-5.747 0.6336,0.0905 1.0408,1.44806 0.5883,1.90058 -0.4525,0.45252 -6.29,6.33528 -6.5615,5.24923 -0.2715,-1.08605 0.3167,-1.40281 0.3167,-1.40281 z"
       id="path6842"
       inkscape:connector-curvature="0" />
    <path
       style="fill:#000000;stroke:none;stroke-width:0.26458332px;stroke-linecap:butt;stroke-linejoin:miter;stroke-opacity:1"
       d="m 1529.2915,447.82311 -0.7241,2.44361 2.6699,0.81454 0.4978,-2.30785 z"
       id="path6844"
       inkscape:connector-curvature="0" />
    <path
       style="fill:#000000;stroke:none;stroke-width:0.26458332px;stroke-linecap:butt;stroke-linejoin:miter;stroke-opacity:1"
       d="m 1532.5044,446.05829 c -0.1358,0.181 -0.7693,2.71512 -0.7693,2.71512 0,0 2.4888,0.31676 2.6246,0.13575 0.1357,-0.18101 0.3167,-2.53411 0.3167,-2.53411 z"
       id="path6846"
       inkscape:connector-curvature="0" />
    <path
       style="fill:#000000;stroke:none;stroke-width:0.26458332px;stroke-linecap:butt;stroke-linejoin:miter;stroke-opacity:1"
       d="m 1548.5236,438.3202 -0.8146,1.71957 2.4889,1.49332 0.8598,-2.76037 z"
       id="path6848"
       inkscape:connector-curvature="0" />
    <path
       style="fill:#000000;stroke:none;stroke-width:0.26458332px;stroke-linecap:butt;stroke-linejoin:miter;stroke-opacity:1"
       d="m 1547.2565,457.46179 -1.2671,2.08159 2.2626,1.31231 1.1313,-2.12685 z"
       id="path6850"
       inkscape:connector-curvature="0" />
    <path
       style="fill:#000000;stroke:none;stroke-width:0.26458332px;stroke-linecap:butt;stroke-linejoin:miter;stroke-opacity:1"
       d="m 1550.4694,456.10423 c 0,0 -1.0861,2.62461 -1.0861,2.62461 l 2.3531,0.95029 0.9956,-2.48886 z"
       id="path6852"
       inkscape:connector-curvature="0" />
  </g>
</svg>
